<?xml version="1.0" encoding="utf-8"?>
<!-- Generator: Adobe Illustrator 24.1.2, SVG Export Plug-In . SVG Version: 6.00 Build 0)  -->
<svg version="1.1"
	 id="Layer_1" xmlns:cc="http://creativecommons.org/ns#" xmlns:dc="http://purl.org/dc/elements/1.1/" xmlns:rdf="http://www.w3.org/1999/02/22-rdf-syntax-ns#"
	 xmlns="http://www.w3.org/2000/svg" xmlns:xlink="http://www.w3.org/1999/xlink" x="0px" y="0px" viewBox="0 0 554.8 537.1"
	 style="enable-background:new 0 0 554.8 537.1;" xml:space="preserve">
<style type="text/css">
	.st0{fill:#774A9D;}
	.st1{fill:#70BF44;}
	.st2{fill:#F7931A;}
	.st3{fill:#3951A3;}
	.st4{fill:#D63C24;}
	.st5{fill:#231F20;}
	.st6{fill:#FFFFFF;}
</style>
<g transform="translate(0.00630876,-0.00301984)">
	<path class="st0" d="M485.9,464.3c-12.6,51.6-64.8,82.8-116.1,69.9c-51.6-12.6-82.8-64.8-69.9-116.1
		c12.6-51.6,64.8-82.8,116.1-69.9C467.6,360.8,498.8,413,485.9,464.3z"/>
</g>
<g transform="translate(0.00630876,-0.00301984)">
	<path class="st1" d="M551.9,249.2c-12.6,51.6-64.8,82.8-116.1,69.9c-51.6-12.6-82.8-64.8-69.9-116.1
		c12.6-51.6,64.8-82.8,116.1-69.9C533.6,145.7,564.8,197.9,551.9,249.2z"/>
</g>
<g transform="translate(0.00630876,-0.00301984)">
	<path class="st2" d="M370.1,119c-12.6,51.6-64.8,82.8-116.1,69.9c-51.6-12.6-82.8-64.8-69.9-116.1C196.7,21.2,248.9-10,300.2,2.9
		C351.8,15.5,383,67.7,370.1,119z"/>
</g>
<g transform="translate(0.00630876,-0.00301984)">
	<path class="st3" d="M254.3,464.3c-12.6,51.6-64.8,82.8-116.1,69.9c-51.6-12.6-82.8-64.8-69.9-116.1
		c12.6-51.6,64.8-82.8,116.1-69.9C236,360.8,267.2,413,254.3,464.3z"/>
</g>
<g transform="translate(0.00630876,-0.00301984)">
	<path class="st4" d="M188.9,249.2c-12.6,51.6-64.8,82.8-116.1,69.9C21.2,306.5-10,254.3,2.9,203c12.6-51.6,64.8-82.8,116.1-69.9
		C170.6,145.7,201.8,197.9,188.9,249.2z"/>
</g>
<g transform="translate(0.00630876,-0.00301984)">
	<path class="st5" d="M370.1,311c-12.6,51.6-64.8,82.8-116.1,69.9c-51.6-12.6-82.8-64.8-69.9-116.1c12.6-51.6,64.8-82.8,116.1-69.9
		C351.8,207.5,383,259.7,370.1,311z"/>
	<path class="st6" d="M319.4,274.1c1.8-12.9-7.8-19.5-21-24.3l4.2-17.4l-10.5-2.4l-4.2,16.8c-2.7-0.6-5.7-1.2-8.4-2.1l4.2-17.1
		l-10.5-2.7l-4.2,17.4c-2.4-0.6-4.5-0.9-6.6-1.5l0,0l-14.4-3.6l-2.7,11.4c0,0,7.8,1.8,7.5,1.8c4.2,1.2,5.1,3.9,4.8,6l-4.8,19.8
		c0.3,0,0.6,0.3,1.2,0.3c-0.3,0-0.6-0.3-1.2-0.3l-6.9,27.6c-0.6,1.2-1.8,3.3-4.8,2.4c0,0.3-7.8-1.8-7.8-1.8l-5.1,12l13.8,3.3
		c2.7,0.6,5.1,1.2,7.5,1.8l-4.5,17.4l10.5,2.7l4.2-17.4c3,0.9,5.7,1.5,8.4,2.1l-4.2,17.1l10.5,2.7l4.5-17.4
		c18,3.3,31.5,2.1,37.2-14.1c4.5-13.2-0.3-20.7-9.6-25.5C312.8,288.2,317.9,283.7,319.4,274.1z M295.4,308
		c-3.3,13.2-25.2,6-32.4,4.2l5.7-23.1C275.9,290.9,298.7,294.2,295.4,308z M298.7,274.1c-3,12-21.3,6-27.3,4.5l5.1-21
		C282.5,258.8,301.7,261.5,298.7,274.1z"/>
</g>
</svg>
