<?xml version="1.0" encoding="utf-8" standalone="no"?>
<!DOCTYPE svg PUBLIC "-//W3C//DTD SVG 1.1//EN"
  "http://www.w3.org/Graphics/SVG/1.1/DTD/svg11.dtd">
<svg xmlns:xlink="http://www.w3.org/1999/xlink" width="460.8pt" height="345.6pt" viewBox="0 0 460.8 345.6" xmlns="http://www.w3.org/2000/svg" version="1.1">
 <metadata>
  <rdf:RDF xmlns:dc="http://purl.org/dc/elements/1.1/" xmlns:cc="http://creativecommons.org/ns#" xmlns:rdf="http://www.w3.org/1999/02/22-rdf-syntax-ns#">
   <cc:Work>
    <dc:type rdf:resource="http://purl.org/dc/dcmitype/StillImage"/>
    <dc:date>2023-02-05T01:07:11.111721</dc:date>
    <dc:format>image/svg+xml</dc:format>
    <dc:creator>
     <cc:Agent>
      <dc:title>Matplotlib v3.6.3, https://matplotlib.org/</dc:title>
     </cc:Agent>
    </dc:creator>
   </cc:Work>
  </rdf:RDF>
 </metadata>
 <defs>
  <style type="text/css">*{stroke-linejoin: round; stroke-linecap: butt}</style>
 </defs>
 <g id="figure_1">
  <g id="patch_1">
   <path d="M 0 345.6 
L 460.8 345.6 
L 460.8 0 
L 0 0 
z
" style="fill: #ffffff"/>
  </g>
  <g id="axes_1">
   <g id="PathCollection_1">
    <path d="M 115.116727 136.058264 
L 113.452427 141.180453 
L 108.066639 141.180453 
L 112.423833 144.34614 
L 110.759533 149.468329 
L 115.116727 146.302642 
L 119.473922 149.468329 
L 117.809622 144.34614 
L 122.166816 141.180453 
L 116.781028 141.180453 
z
" clip-path="url(#p0c83bd60c6)" style="fill: #00e18e; fill-opacity: 0.5; stroke: #00e18e; stroke-opacity: 0.5"/>
    <path d="M 112.157281 209.688446 
L 109.204962 218.77475 
L 99.651056 218.77475 
L 107.380328 224.390395 
L 104.428009 233.476699 
L 112.157281 227.861054 
L 119.886553 233.476699 
L 116.934234 224.390395 
L 124.663506 218.77475 
L 115.1096 218.77475 
z
" clip-path="url(#p0c83bd60c6)" style="fill: #0000ff; fill-opacity: 0.5; stroke: #0000ff; stroke-opacity: 0.5"/>
    <path d="M 371.055112 117.356173 
L 368.523585 125.147414 
L 360.33139 125.147414 
L 366.959015 129.962665 
L 364.427488 137.753905 
L 371.055112 132.938654 
L 377.682737 137.753905 
L 375.15121 129.962665 
L 381.778835 125.147414 
L 373.58664 125.147414 
z
" clip-path="url(#p0c83bd60c6)" style="fill: #0006fc; fill-opacity: 0.5; stroke: #0006fc; stroke-opacity: 0.5"/>
    <path d="M 388.071241 162.74503 
L 385.3558 171.102299 
L 376.568447 171.102299 
L 383.677565 176.267375 
L 380.962123 184.624644 
L 388.071241 179.459567 
L 395.180358 184.624644 
L 392.464917 176.267375 
L 399.574035 171.102299 
L 390.786682 171.102299 
z
" clip-path="url(#p0c83bd60c6)" style="fill: #00a6ac; fill-opacity: 0.5; stroke: #00a6ac; stroke-opacity: 0.5"/>
    <path d="M 160.061062 184.783419 
L 157.409552 192.943928 
L 148.829085 192.943928 
L 155.770829 197.9874 
L 153.119319 206.147908 
L 160.061062 201.104437 
L 167.002805 206.147908 
L 164.351295 197.9874 
L 171.293039 192.943928 
L 162.712572 192.943928 
z
" clip-path="url(#p0c83bd60c6)" style="fill: #00ff80; fill-opacity: 0.5; stroke: #00ff80; stroke-opacity: 0.5"/>
    <path d="M 241.64984 257.462989 
L 240.511985 260.964947 
L 236.829809 260.964947 
L 239.808752 263.129276 
L 238.670897 266.631233 
L 241.64984 264.466904 
L 244.628783 266.631233 
L 243.490928 263.129276 
L 246.469871 260.964947 
L 242.787695 260.964947 
z
" clip-path="url(#p0c83bd60c6)" style="fill: #0027ec; fill-opacity: 0.5; stroke: #0027ec; stroke-opacity: 0.5"/>
    <path d="M 345.678953 272.605453 
L 343.756808 278.521208 
L 337.536616 278.521208 
L 342.568857 282.177345 
L 340.646712 288.093099 
L 345.678953 284.436962 
L 350.711195 288.093099 
L 348.789049 282.177345 
L 353.821291 278.521208 
L 347.601098 278.521208 
z
" clip-path="url(#p0c83bd60c6)" style="fill: #001ef0; fill-opacity: 0.5; stroke: #001ef0; stroke-opacity: 0.5"/>
    <path d="M 137.090929 268.631885 
L 134.053051 277.98151 
L 124.222273 277.98151 
L 132.17554 283.759897 
L 129.137662 293.109522 
L 137.090929 287.331136 
L 145.044195 293.109522 
L 142.006317 283.759897 
L 149.959584 277.98151 
L 140.128806 277.98151 
z
" clip-path="url(#p0c83bd60c6)" style="fill: #0067cc; fill-opacity: 0.5; stroke: #0067cc; stroke-opacity: 0.5"/>
    <path d="M 398.487273 157.803724 
L 398.219362 158.628269 
L 397.352384 158.628269 
L 398.053784 159.137866 
L 397.785873 159.962411 
L 398.487273 159.452814 
L 399.188673 159.962411 
L 398.920762 159.137866 
L 399.622162 158.628269 
L 398.755184 158.628269 
z
" clip-path="url(#p0c83bd60c6)" style="fill: #006aca; fill-opacity: 0.5; stroke: #006aca; stroke-opacity: 0.5"/>
    <path d="M 351.114691 216.587695 
L 348.782623 223.765062 
L 341.235893 223.765062 
L 347.341326 228.200918 
L 345.009258 235.378284 
L 351.114691 230.942428 
L 357.220123 235.378284 
L 354.888055 228.200918 
L 360.993488 223.765062 
L 353.446758 223.765062 
z
" clip-path="url(#p0c83bd60c6)" style="fill: #007ac2; fill-opacity: 0.5; stroke: #007ac2; stroke-opacity: 0.5"/>
    <path d="M 231.337158 160.4475 
L 228.021775 170.651199 
L 217.292971 170.651199 
L 225.972756 176.957432 
L 222.657373 187.161132 
L 231.337158 180.854899 
L 240.016943 187.161132 
L 236.70156 176.957432 
L 245.381346 170.651199 
L 234.652541 170.651199 
z
" clip-path="url(#p0c83bd60c6)" style="fill: #00e48d; fill-opacity: 0.5; stroke: #00e48d; stroke-opacity: 0.5"/>
    <path d="M 119.648099 166.163655 
L 117.038045 174.196573 
L 108.591735 174.196573 
L 115.424944 179.16119 
L 112.81489 187.194108 
L 119.648099 182.229491 
L 126.481307 187.194108 
L 123.871253 179.16119 
L 130.704462 174.196573 
L 122.258152 174.196573 
z
" clip-path="url(#p0c83bd60c6)" style="fill: #00e68c; fill-opacity: 0.5; stroke: #00e68c; stroke-opacity: 0.5"/>
    <path d="M 300.833083 44.48512 
L 298.79385 50.761236 
L 292.194751 50.761236 
L 297.533534 54.640089 
L 295.494301 60.916204 
L 300.833083 57.037351 
L 306.171866 60.916204 
L 304.132633 54.640089 
L 309.471415 50.761236 
L 302.872317 50.761236 
z
" clip-path="url(#p0c83bd60c6)" style="fill: #006bca; fill-opacity: 0.5; stroke: #006bca; stroke-opacity: 0.5"/>
    <path d="M 85.373731 276.811777 
L 83.17506 283.57859 
L 76.060012 283.57859 
L 81.816207 287.760711 
L 79.617536 294.527524 
L 85.373731 290.345403 
L 91.129926 294.527524 
L 88.931255 287.760711 
L 94.68745 283.57859 
L 87.572402 283.57859 
z
" clip-path="url(#p0c83bd60c6)" style="fill: #0041de; fill-opacity: 0.5; stroke: #0041de; stroke-opacity: 0.5"/>
    <path d="M 289.438213 84.981227 
L 288.216884 88.740093 
L 284.264579 88.740093 
L 287.462061 91.063199 
L 286.240731 94.822065 
L 289.438213 92.498958 
L 292.635695 94.822065 
L 291.414366 91.063199 
L 294.611848 88.740093 
L 290.659543 88.740093 
z
" clip-path="url(#p0c83bd60c6)" style="fill: #006ec8; fill-opacity: 0.5; stroke: #006ec8; stroke-opacity: 0.5"/>
    <path d="M 77.150565 132.927781 
L 75.280469 138.683346 
L 69.22871 138.683346 
L 74.124686 142.24048 
L 72.254589 147.996045 
L 77.150565 144.43891 
L 82.046541 147.996045 
L 80.176444 142.24048 
L 85.07242 138.683346 
L 79.020661 138.683346 
z
" clip-path="url(#p0c83bd60c6)" style="fill: #0088bb; fill-opacity: 0.5; stroke: #0088bb; stroke-opacity: 0.5"/>
    <path d="M 388.721123 121.084278 
L 386.182213 128.898241 
L 377.966126 128.898241 
L 384.61308 133.727535 
L 382.07417 141.541498 
L 388.721123 136.712203 
L 395.368077 141.541498 
L 392.829166 133.727535 
L 399.47612 128.898241 
L 391.260033 128.898241 
z
" clip-path="url(#p0c83bd60c6)" style="fill: #0056d4; fill-opacity: 0.5; stroke: #0056d4; stroke-opacity: 0.5"/>
    <path d="M 196.017852 88.138495 
L 195.701593 89.111838 
L 194.678159 89.111838 
L 195.506135 89.713397 
L 195.189876 90.686741 
L 196.017852 90.085182 
L 196.845827 90.686741 
L 196.529569 89.713397 
L 197.357544 89.111838 
L 196.33411 89.111838 
z
" clip-path="url(#p0c83bd60c6)" style="fill: #00ef88; fill-opacity: 0.5; stroke: #00ef88; stroke-opacity: 0.5"/>
    <path d="M 80.735109 46.737312 
L 78.475482 53.691729 
L 71.163176 53.691729 
L 77.078956 57.989795 
L 74.819329 64.944212 
L 80.735109 60.646145 
L 86.65089 64.944212 
L 84.391262 57.989795 
L 90.307043 53.691729 
L 82.994736 53.691729 
z
" clip-path="url(#p0c83bd60c6)" style="fill: #00cb9a; fill-opacity: 0.5; stroke: #00cb9a; stroke-opacity: 0.5"/>
    <path d="M 98.000792 246.423008 
L 96.760626 250.239847 
L 92.747364 250.239847 
L 95.994161 252.598784 
L 94.753995 256.415623 
L 98.000792 254.056686 
L 101.24759 256.415623 
L 100.007423 252.598784 
L 103.254221 250.239847 
L 99.240958 250.239847 
z
" clip-path="url(#p0c83bd60c6)" style="fill: #0029eb; fill-opacity: 0.5; stroke: #0029eb; stroke-opacity: 0.5"/>
    <path d="M 279.394475 209.0224 
L 278.002913 213.305189 
L 273.499722 213.305189 
L 277.14288 215.952098 
L 275.751318 220.234886 
L 279.394475 217.587977 
L 283.037633 220.234886 
L 281.646071 215.952098 
L 285.289228 213.305189 
L 280.786038 213.305189 
z
" clip-path="url(#p0c83bd60c6)" style="fill: #00fe80; fill-opacity: 0.5; stroke: #00fe80; stroke-opacity: 0.5"/>
    <path d="M 396.285281 268.515631 
L 394.016591 275.497941 
L 386.674955 275.497941 
L 392.614463 279.813246 
L 390.345773 286.795556 
L 396.285281 282.480251 
L 402.224788 286.795556 
L 399.956098 279.813246 
L 405.895606 275.497941 
L 398.553971 275.497941 
z
" clip-path="url(#p0c83bd60c6)" style="fill: #0099b2; fill-opacity: 0.5; stroke: #0099b2; stroke-opacity: 0.5"/>
   </g>
   <g id="PathCollection_2">
    <path d="M 115.116727 152.196873 
C 117.430812 152.196873 119.650429 151.277477 121.286734 149.641173 
C 122.923039 148.004868 123.842435 145.78525 123.842435 143.471166 
C 123.842435 141.157081 122.923039 138.937464 121.286734 137.301159 
C 119.650429 135.664854 117.430812 134.745459 115.116727 134.745459 
C 112.802643 134.745459 110.583026 135.664854 108.946721 137.301159 
C 107.310416 138.937464 106.39102 141.157081 106.39102 143.471166 
C 106.39102 145.78525 107.310416 148.004868 108.946721 149.641173 
C 110.583026 151.277477 112.802643 152.196873 115.116727 152.196873 
z
" clip-path="url(#p0c83bd60c6)" style="fill: #0034e5; fill-opacity: 0.5; stroke: #0034e5; stroke-opacity: 0.5"/>
    <path d="M 112.157281 234.668344 
C 115.294653 234.668344 118.30395 233.421852 120.522407 231.203395 
C 122.740864 228.984938 123.987356 225.975641 123.987356 222.838269 
C 123.987356 219.700896 122.740864 216.6916 120.522407 214.473143 
C 118.30395 212.254685 115.294653 211.008194 112.157281 211.008194 
C 109.019908 211.008194 106.010612 212.254685 103.792155 214.473143 
C 101.573698 216.6916 100.327206 219.700896 100.327206 222.838269 
C 100.327206 225.975641 101.573698 228.984938 103.792155 231.203395 
C 106.010612 233.421852 109.019908 234.668344 112.157281 234.668344 
z
" clip-path="url(#p0c83bd60c6)" style="fill: #0000ff; fill-opacity: 0.5; stroke: #0000ff; stroke-opacity: 0.5"/>
    <path d="M 371.055112 136.669789 
C 373.186822 136.669789 375.231509 135.822852 376.738856 134.315505 
C 378.246202 132.808159 379.093139 130.763472 379.093139 128.631762 
C 379.093139 126.500053 378.246202 124.455365 376.738856 122.948019 
C 375.231509 121.440673 373.186822 120.593735 371.055112 120.593735 
C 368.923403 120.593735 366.878716 121.440673 365.371369 122.948019 
C 363.864023 124.455365 363.017086 126.500053 363.017086 128.631762 
C 363.017086 130.763472 363.864023 132.808159 365.371369 134.315505 
C 366.878716 135.822852 368.923403 136.669789 371.055112 136.669789 
z
" clip-path="url(#p0c83bd60c6)" style="fill: #0094b5; fill-opacity: 0.5; stroke: #0094b5; stroke-opacity: 0.5"/>
    <path d="M 388.071241 186.096424 
C 391.056537 186.096424 393.919965 184.910354 396.030888 182.799431 
C 398.141812 180.688507 399.327882 177.825079 399.327882 174.839783 
C 399.327882 171.854487 398.141812 168.991059 396.030888 166.880136 
C 393.919965 164.769212 391.056537 163.583142 388.071241 163.583142 
C 385.085945 163.583142 382.222517 164.769212 380.111593 166.880136 
C 378.00067 168.991059 376.814599 171.854487 376.814599 174.839783 
C 376.814599 177.825079 378.00067 180.688507 380.111593 182.799431 
C 382.222517 184.910354 385.085945 186.096424 388.071241 186.096424 
z
" clip-path="url(#p0c83bd60c6)" style="fill: #00b2a6; fill-opacity: 0.5; stroke: #00b2a6; stroke-opacity: 0.5"/>
    <path d="M 160.061062 196.925518 
C 160.149136 196.925518 160.233614 196.890526 160.295892 196.828248 
C 160.358169 196.765971 160.393162 196.681492 160.393162 196.593418 
C 160.393162 196.505345 160.358169 196.420866 160.295892 196.358588 
C 160.233614 196.296311 160.149136 196.261319 160.061062 196.261319 
C 159.972988 196.261319 159.88851 196.296311 159.826232 196.358588 
C 159.763954 196.420866 159.728962 196.505345 159.728962 196.593418 
C 159.728962 196.681492 159.763954 196.765971 159.826232 196.828248 
C 159.88851 196.890526 159.972988 196.925518 160.061062 196.925518 
z
" clip-path="url(#p0c83bd60c6)" style="fill: #0065cc; fill-opacity: 0.5; stroke: #0065cc; stroke-opacity: 0.5"/>
    <path d="M 241.64984 273.958645 
C 244.680469 273.958645 247.587378 272.754563 249.730356 270.611586 
C 251.873334 268.468608 253.077415 265.561698 253.077415 262.53107 
C 253.077415 259.500442 251.873334 256.593532 249.730356 254.450554 
C 247.587378 252.307576 244.680469 251.103495 241.64984 251.103495 
C 238.619212 251.103495 235.712302 252.307576 233.569325 254.450554 
C 231.426347 256.593532 230.222266 259.500442 230.222266 262.53107 
C 230.222266 265.561698 231.426347 268.468608 233.569325 270.611586 
C 235.712302 272.754563 238.619212 273.958645 241.64984 273.958645 
z
" clip-path="url(#p0c83bd60c6)" style="fill: #0045dc; fill-opacity: 0.5; stroke: #0045dc; stroke-opacity: 0.5"/>
    <path d="M 345.678953 282.475215 
C 346.025945 282.475215 346.358772 282.337354 346.604133 282.091993 
C 346.849493 281.846633 346.987355 281.513806 346.987355 281.166813 
C 346.987355 280.819821 346.849493 280.486994 346.604133 280.241634 
C 346.358772 279.996273 346.025945 279.858412 345.678953 279.858412 
C 345.331961 279.858412 344.999134 279.996273 344.753774 280.241634 
C 344.508413 280.486994 344.370552 280.819821 344.370552 281.166813 
C 344.370552 281.513806 344.508413 281.846633 344.753774 282.091993 
C 344.999134 282.337354 345.331961 282.475215 345.678953 282.475215 
z
" clip-path="url(#p0c83bd60c6)" style="fill: #0053d6; fill-opacity: 0.5; stroke: #0053d6; stroke-opacity: 0.5"/>
    <path d="M 137.090929 285.369112 
C 137.941255 285.369112 138.756869 285.031274 139.358141 284.430002 
C 139.959412 283.828731 140.297251 283.013117 140.297251 282.16279 
C 140.297251 281.312463 139.959412 280.496849 139.358141 279.895578 
C 138.756869 279.294306 137.941255 278.956468 137.090929 278.956468 
C 136.240602 278.956468 135.424988 279.294306 134.823716 279.895578 
C 134.222445 280.496849 133.884606 281.312463 133.884606 282.16279 
C 133.884606 283.013117 134.222445 283.828731 134.823716 284.430002 
C 135.424988 285.031274 136.240602 285.369112 137.090929 285.369112 
z
" clip-path="url(#p0c83bd60c6)" style="fill: #004cd9; fill-opacity: 0.5; stroke: #004cd9; stroke-opacity: 0.5"/>
    <path d="M 398.487273 169.440006 
C 401.256786 169.440006 403.91324 168.339667 405.871581 166.381325 
C 407.829922 164.422984 408.930262 161.76653 408.930262 158.997017 
C 408.930262 156.227504 407.829922 153.57105 405.871581 151.612709 
C 403.91324 149.654367 401.256786 148.554028 398.487273 148.554028 
C 395.71776 148.554028 393.061306 149.654367 391.102964 151.612709 
C 389.144623 153.57105 388.044284 156.227504 388.044284 158.997017 
C 388.044284 161.76653 389.144623 164.422984 391.102964 166.381325 
C 393.061306 168.339667 395.71776 169.440006 398.487273 169.440006 
z
" clip-path="url(#p0c83bd60c6)" style="fill: #008db8; fill-opacity: 0.5; stroke: #008db8; stroke-opacity: 0.5"/>
    <path d="M 351.114691 233.967978 
C 352.969282 233.967978 354.748165 233.231141 356.059559 231.919746 
C 357.370954 230.608352 358.107791 228.829469 358.107791 226.974877 
C 358.107791 225.120285 357.370954 223.341403 356.059559 222.030009 
C 354.748165 220.718614 352.969282 219.981777 351.114691 219.981777 
C 349.260099 219.981777 347.481216 220.718614 346.169822 222.030009 
C 344.858427 223.341403 344.12159 225.120285 344.12159 226.974877 
C 344.12159 228.829469 344.858427 230.608352 346.169822 231.919746 
C 347.481216 233.231141 349.260099 233.967978 351.114691 233.967978 
z
" clip-path="url(#p0c83bd60c6)" style="fill: #0009fa; fill-opacity: 0.5; stroke: #0009fa; stroke-opacity: 0.5"/>
    <path d="M 231.337158 189.738311 
C 235.188936 189.738311 238.883473 188.207983 241.607091 185.484365 
C 244.330709 182.760747 245.861036 179.06621 245.861036 175.214432 
C 245.861036 171.362655 244.330709 167.668118 241.607091 164.9445 
C 238.883473 162.220882 235.188936 160.690554 231.337158 160.690554 
C 227.485381 160.690554 223.790843 162.220882 221.067225 164.9445 
C 218.343607 167.668118 216.81328 171.362655 216.81328 175.214432 
C 216.81328 179.06621 218.343607 182.760747 221.067225 185.484365 
C 223.790843 188.207983 227.485381 189.738311 231.337158 189.738311 
z
" clip-path="url(#p0c83bd60c6)" style="fill: #0087bc; fill-opacity: 0.5; stroke: #0087bc; stroke-opacity: 0.5"/>
    <path d="M 119.648099 183.723924 
C 121.222058 183.723924 122.731764 183.098583 123.844721 181.985626 
C 124.957678 180.872668 125.583019 179.362963 125.583019 177.789003 
C 125.583019 176.215044 124.957678 174.705338 123.844721 173.592381 
C 122.731764 172.479424 121.222058 171.854083 119.648099 171.854083 
C 118.074139 171.854083 116.564434 172.479424 115.451476 173.592381 
C 114.338519 174.705338 113.713178 176.215044 113.713178 177.789003 
C 113.713178 179.362963 114.338519 180.872668 115.451476 181.985626 
C 116.564434 183.098583 118.074139 183.723924 119.648099 183.723924 
z
" clip-path="url(#p0c83bd60c6)" style="fill: #004ed8; fill-opacity: 0.5; stroke: #004ed8; stroke-opacity: 0.5"/>
    <path d="M 300.833083 63.498104 
C 303.466578 63.498104 305.992566 62.451806 307.854727 60.589644 
C 309.716889 58.727482 310.763188 56.201494 310.763188 53.568 
C 310.763188 50.934506 309.716889 48.408518 307.854727 46.546356 
C 305.992566 44.684194 303.466578 43.637896 300.833083 43.637896 
C 298.199589 43.637896 295.673601 44.684194 293.811439 46.546356 
C 291.949278 48.408518 290.902979 50.934506 290.902979 53.568 
C 290.902979 56.201494 291.949278 58.727482 293.811439 60.589644 
C 295.673601 62.451806 298.199589 63.498104 300.833083 63.498104 
z
" clip-path="url(#p0c83bd60c6)" style="fill: #001cf1; fill-opacity: 0.5; stroke: #001cf1; stroke-opacity: 0.5"/>
    <path d="M 85.373731 288.240518 
C 85.807528 288.240518 86.223617 288.068168 86.530357 287.761427 
C 86.837098 287.454687 87.009448 287.038598 87.009448 286.604801 
C 87.009448 286.171004 86.837098 285.754916 86.530357 285.448175 
C 86.223617 285.141434 85.807528 284.969085 85.373731 284.969085 
C 84.939934 284.969085 84.523846 285.141434 84.217105 285.448175 
C 83.910364 285.754916 83.738015 286.171004 83.738015 286.604801 
C 83.738015 287.038598 83.910364 287.454687 84.217105 287.761427 
C 84.523846 288.068168 84.939934 288.240518 85.373731 288.240518 
z
" clip-path="url(#p0c83bd60c6)" style="fill: #0053d6; fill-opacity: 0.5; stroke: #0053d6; stroke-opacity: 0.5"/>
    <path d="M 289.438213 93.667212 
C 290.29909 93.667212 291.124823 93.325182 291.733555 92.71645 
C 292.342287 92.107719 292.684317 91.281985 292.684317 90.421109 
C 292.684317 89.560232 292.342287 88.734499 291.733555 88.125767 
C 291.124823 87.517035 290.29909 87.175005 289.438213 87.175005 
C 288.577337 87.175005 287.751603 87.517035 287.142871 88.125767 
C 286.53414 88.734499 286.19211 89.560232 286.19211 90.421109 
C 286.19211 91.281985 286.53414 92.107719 287.142871 92.71645 
C 287.751603 93.325182 288.577337 93.667212 289.438213 93.667212 
z
" clip-path="url(#p0c83bd60c6)" style="fill: #009ab2; fill-opacity: 0.5; stroke: #009ab2; stroke-opacity: 0.5"/>
    <path d="M 77.150565 143.651956 
C 77.785632 143.651956 78.394773 143.399641 78.843834 142.950581 
C 79.292894 142.501521 79.545208 141.892379 79.545208 141.257313 
C 79.545208 140.622246 79.292894 140.013104 78.843834 139.564044 
C 78.394773 139.114984 77.785632 138.862669 77.150565 138.862669 
C 76.515498 138.862669 75.906357 139.114984 75.457296 139.564044 
C 75.008236 140.013104 74.755922 140.622246 74.755922 141.257313 
C 74.755922 141.892379 75.008236 142.501521 75.457296 142.950581 
C 75.906357 143.399641 76.515498 143.651956 77.150565 143.651956 
z
" clip-path="url(#p0c83bd60c6)" style="fill: #004ed8; fill-opacity: 0.5; stroke: #004ed8; stroke-opacity: 0.5"/>
    <path d="M 388.721123 141.955579 
C 391.257215 141.955579 393.689776 140.947979 395.483064 139.154692 
C 397.276351 137.361404 398.283951 134.928843 398.283951 132.392751 
C 398.283951 129.856659 397.276351 127.424098 395.483064 125.63081 
C 393.689776 123.837523 391.257215 122.829923 388.721123 122.829923 
C 386.185031 122.829923 383.75247 123.837523 381.959182 125.63081 
C 380.165895 127.424098 379.158295 129.856659 379.158295 132.392751 
C 379.158295 134.928843 380.165895 137.361404 381.959182 139.154692 
C 383.75247 140.947979 386.185031 141.955579 388.721123 141.955579 
z
" clip-path="url(#p0c83bd60c6)" style="fill: #00a0af; fill-opacity: 0.5; stroke: #00a0af; stroke-opacity: 0.5"/>
    <path d="M 196.017852 90.964847 
C 196.393834 90.964847 196.754468 90.815467 197.020328 90.549607 
C 197.286188 90.283747 197.435568 89.923113 197.435568 89.547131 
C 197.435568 89.171148 197.286188 88.810514 197.020328 88.544654 
C 196.754468 88.278794 196.393834 88.129414 196.017852 88.129414 
C 195.641869 88.129414 195.281235 88.278794 195.015375 88.544654 
C 194.749515 88.810514 194.600136 89.171148 194.600136 89.547131 
C 194.600136 89.923113 194.749515 90.283747 195.015375 90.549607 
C 195.281235 90.815467 195.641869 90.964847 196.017852 90.964847 
z
" clip-path="url(#p0c83bd60c6)" style="fill: #00b2a6; fill-opacity: 0.5; stroke: #00b2a6; stroke-opacity: 0.5"/>
    <path d="M 80.735109 58.175098 
C 81.099302 58.175098 81.448627 58.030403 81.70615 57.77288 
C 81.963674 57.515356 82.108369 57.166031 82.108369 56.801838 
C 82.108369 56.437646 81.963674 56.08832 81.70615 55.830797 
C 81.448627 55.573274 81.099302 55.428579 80.735109 55.428579 
C 80.370917 55.428579 80.021591 55.573274 79.764068 55.830797 
C 79.506545 56.08832 79.36185 56.437646 79.36185 56.801838 
C 79.36185 57.166031 79.506545 57.515356 79.764068 57.77288 
C 80.021591 58.030403 80.370917 58.175098 80.735109 58.175098 
z
" clip-path="url(#p0c83bd60c6)" style="fill: #0008fb; fill-opacity: 0.5; stroke: #0008fb; stroke-opacity: 0.5"/>
    <path d="M 98.000792 262.257877 
C 100.735325 262.257877 103.358226 261.171436 105.291832 259.23783 
C 107.225438 257.304223 108.31188 254.681322 108.31188 251.94679 
C 108.31188 249.212257 107.225438 246.589356 105.291832 244.65575 
C 103.358226 242.722143 100.735325 241.635702 98.000792 241.635702 
C 95.26626 241.635702 92.643359 242.722143 90.709752 244.65575 
C 88.776146 246.589356 87.689705 249.212257 87.689705 251.94679 
C 87.689705 254.681322 88.776146 257.304223 90.709752 259.23783 
C 92.643359 261.171436 95.26626 262.257877 98.000792 262.257877 
z
" clip-path="url(#p0c83bd60c6)" style="fill: #00ff80; fill-opacity: 0.5; stroke: #00ff80; stroke-opacity: 0.5"/>
    <path d="M 279.394475 227.784761 
C 282.726554 227.784761 285.922607 226.460912 288.278743 224.104777 
C 290.634878 221.748642 291.958726 218.552588 291.958726 215.22051 
C 291.958726 211.888432 290.634878 208.692378 288.278743 206.336243 
C 285.922607 203.980107 282.726554 202.656259 279.394475 202.656259 
C 276.062397 202.656259 272.866343 203.980107 270.510208 206.336243 
C 268.154073 208.692378 266.830224 211.888432 266.830224 215.22051 
C 266.830224 218.552588 268.154073 221.748642 270.510208 224.104777 
C 272.866343 226.460912 276.062397 227.784761 279.394475 227.784761 
z
" clip-path="url(#p0c83bd60c6)" style="fill: #0052d6; fill-opacity: 0.5; stroke: #0052d6; stroke-opacity: 0.5"/>
    <path d="M 396.285281 292.606229 
C 399.994333 292.606229 403.551971 291.132607 406.174667 288.509912 
C 408.797363 285.887216 410.270985 282.329577 410.270985 278.620525 
C 410.270985 274.911473 408.797363 271.353835 406.174667 268.731139 
C 403.551971 266.108443 399.994333 264.634821 396.285281 264.634821 
C 392.576228 264.634821 389.01859 266.108443 386.395894 268.731139 
C 383.773198 271.353835 382.299576 274.911473 382.299576 278.620525 
C 382.299576 282.329577 383.773198 285.887216 386.395894 288.509912 
C 389.01859 291.132607 392.576228 292.606229 396.285281 292.606229 
z
" clip-path="url(#p0c83bd60c6)" style="fill: #003ae2; fill-opacity: 0.5; stroke: #003ae2; stroke-opacity: 0.5"/>
   </g>
   <g id="PathCollection_3">
    <path d="M 338.758742 230.837364 
L 356.210156 230.837364 
M 347.484449 239.563071 
L 347.484449 222.111657 
" clip-path="url(#p0c83bd60c6)" style="fill: #0034e5; fill-opacity: 0.5; stroke: #0034e5; stroke-opacity: 0.5; stroke-width: 1.5"/>
    <path d="M 90.921283 118.767375 
L 114.581432 118.767375 
M 102.751358 130.597449 
L 102.751358 106.9373 
" clip-path="url(#p0c83bd60c6)" style="fill: #0000ff; fill-opacity: 0.5; stroke: #0000ff; stroke-opacity: 0.5; stroke-width: 1.5"/>
    <path d="M 198.512858 295.488 
L 214.588912 295.488 
M 206.550885 303.526027 
L 206.550885 287.449973 
" clip-path="url(#p0c83bd60c6)" style="fill: #0094b5; fill-opacity: 0.5; stroke: #0094b5; stroke-opacity: 0.5; stroke-width: 1.5"/>
    <path d="M 253.07246 89.912508 
L 275.585743 89.912508 
M 264.329102 101.16915 
L 264.329102 78.655867 
" clip-path="url(#p0c83bd60c6)" style="fill: #00b2a6; fill-opacity: 0.5; stroke: #00b2a6; stroke-opacity: 0.5; stroke-width: 1.5"/>
    <path d="M 197.805439 207.629011 
L 198.469639 207.629011 
M 198.137539 207.96111 
L 198.137539 207.296911 
" clip-path="url(#p0c83bd60c6)" style="fill: #0065cc; fill-opacity: 0.5; stroke: #0065cc; stroke-opacity: 0.5; stroke-width: 1.5"/>
    <path d="M 370.436524 76.013058 
L 393.291674 76.013058 
M 381.864099 87.440633 
L 381.864099 64.585483 
" clip-path="url(#p0c83bd60c6)" style="fill: #0045dc; fill-opacity: 0.5; stroke: #0045dc; stroke-opacity: 0.5; stroke-width: 1.5"/>
    <path d="M 161.532141 232.711044 
L 164.148944 232.711044 
M 162.840542 234.019445 
L 162.840542 231.402642 
" clip-path="url(#p0c83bd60c6)" style="fill: #0053d6; fill-opacity: 0.5; stroke: #0053d6; stroke-opacity: 0.5; stroke-width: 1.5"/>
    <path d="M 364.850258 203.796362 
L 371.262902 203.796362 
M 368.05658 207.002684 
L 368.05658 200.59004 
" clip-path="url(#p0c83bd60c6)" style="fill: #004cd9; fill-opacity: 0.5; stroke: #004cd9; stroke-opacity: 0.5; stroke-width: 1.5"/>
    <path d="M 155.633667 125.449315 
L 176.519645 125.449315 
M 166.076656 135.892304 
L 166.076656 115.006326 
" clip-path="url(#p0c83bd60c6)" style="fill: #008db8; fill-opacity: 0.5; stroke: #008db8; stroke-opacity: 0.5; stroke-width: 1.5"/>
    <path d="M 124.390673 256.459819 
L 138.376874 256.459819 
M 131.383773 263.45292 
L 131.383773 249.466719 
" clip-path="url(#p0c83bd60c6)" style="fill: #0009fa; fill-opacity: 0.5; stroke: #0009fa; stroke-opacity: 0.5; stroke-width: 1.5"/>
    <path d="M 271.689023 54.465922 
L 300.736779 54.465922 
M 286.212901 68.9898 
L 286.212901 39.942044 
" clip-path="url(#p0c83bd60c6)" style="fill: #0087bc; fill-opacity: 0.5; stroke: #0087bc; stroke-opacity: 0.5; stroke-width: 1.5"/>
    <path d="M 188.822854 252.133873 
L 200.692694 252.133873 
M 194.757774 258.068793 
L 194.757774 246.198953 
" clip-path="url(#p0c83bd60c6)" style="fill: #004ed8; fill-opacity: 0.5; stroke: #004ed8; stroke-opacity: 0.5; stroke-width: 1.5"/>
    <path d="M 63.902623 86.043433 
L 83.762832 86.043433 
M 73.832727 95.973537 
L 73.832727 76.113329 
" clip-path="url(#p0c83bd60c6)" style="fill: #001cf1; fill-opacity: 0.5; stroke: #001cf1; stroke-opacity: 0.5; stroke-width: 1.5"/>
    <path d="M 142.830258 241.789857 
L 146.101691 241.789857 
M 144.465974 243.425573 
L 144.465974 240.15414 
" clip-path="url(#p0c83bd60c6)" style="fill: #0053d6; fill-opacity: 0.5; stroke: #0053d6; stroke-opacity: 0.5; stroke-width: 1.5"/>
    <path d="M 109.485904 278.155593 
L 115.978111 278.155593 
M 112.732007 281.401696 
L 112.732007 274.909489 
" clip-path="url(#p0c83bd60c6)" style="fill: #009ab2; fill-opacity: 0.5; stroke: #009ab2; stroke-opacity: 0.5; stroke-width: 1.5"/>
    <path d="M 84.61907 123.589063 
L 89.408357 123.589063 
M 87.013713 125.983706 
L 87.013713 121.19442 
" clip-path="url(#p0c83bd60c6)" style="fill: #004ed8; fill-opacity: 0.5; stroke: #004ed8; stroke-opacity: 0.5; stroke-width: 1.5"/>
    <path d="M 145.714549 263.352585 
L 164.840205 263.352585 
M 155.277377 272.915413 
L 155.277377 253.789757 
" clip-path="url(#p0c83bd60c6)" style="fill: #00a0af; fill-opacity: 0.5; stroke: #00a0af; stroke-opacity: 0.5; stroke-width: 1.5"/>
    <path d="M 286.191828 101.448122 
L 289.02726 101.448122 
M 287.609544 102.865838 
L 287.609544 100.030406 
" clip-path="url(#p0c83bd60c6)" style="fill: #00b2a6; fill-opacity: 0.5; stroke: #00b2a6; stroke-opacity: 0.5; stroke-width: 1.5"/>
    <path d="M 278.163348 166.175602 
L 280.909867 166.175602 
M 279.536608 167.548862 
L 279.536608 164.802343 
" clip-path="url(#p0c83bd60c6)" style="fill: #0008fb; fill-opacity: 0.5; stroke: #0008fb; stroke-opacity: 0.5; stroke-width: 1.5"/>
    <path d="M 376.552005 197.612732 
L 397.17418 197.612732 
M 386.863092 207.92382 
L 386.863092 187.301645 
" clip-path="url(#p0c83bd60c6)" style="fill: #00ff80; fill-opacity: 0.5; stroke: #00ff80; stroke-opacity: 0.5; stroke-width: 1.5"/>
    <path d="M 334.648139 83.88888 
L 359.776642 83.88888 
M 347.212391 96.453131 
L 347.212391 71.324628 
" clip-path="url(#p0c83bd60c6)" style="fill: #0052d6; fill-opacity: 0.5; stroke: #0052d6; stroke-opacity: 0.5; stroke-width: 1.5"/>
    <path d="M 174.762017 245.08337 
L 202.733425 245.08337 
M 188.747721 259.069074 
L 188.747721 231.097666 
" clip-path="url(#p0c83bd60c6)" style="fill: #003ae2; fill-opacity: 0.5; stroke: #003ae2; stroke-opacity: 0.5; stroke-width: 1.5"/>
   </g>
   <g id="PathCollection_4">
    <path d="M 356.210156 230.837364 
L 338.758742 230.837364 
" clip-path="url(#p0c83bd60c6)" style="fill: #0034e5; fill-opacity: 0.5; stroke: #0034e5; stroke-opacity: 0.5; stroke-width: 1.5"/>
    <path d="M 114.581432 118.767375 
L 90.921283 118.767375 
" clip-path="url(#p0c83bd60c6)" style="fill: #0000ff; fill-opacity: 0.5; stroke: #0000ff; stroke-opacity: 0.5; stroke-width: 1.5"/>
    <path d="M 214.588912 295.488 
L 198.512858 295.488 
" clip-path="url(#p0c83bd60c6)" style="fill: #0094b5; fill-opacity: 0.5; stroke: #0094b5; stroke-opacity: 0.5; stroke-width: 1.5"/>
    <path d="M 275.585743 89.912508 
L 253.07246 89.912508 
" clip-path="url(#p0c83bd60c6)" style="fill: #00b2a6; fill-opacity: 0.5; stroke: #00b2a6; stroke-opacity: 0.5; stroke-width: 1.5"/>
    <path d="M 198.469639 207.629011 
L 197.805439 207.629011 
" clip-path="url(#p0c83bd60c6)" style="fill: #0065cc; fill-opacity: 0.5; stroke: #0065cc; stroke-opacity: 0.5; stroke-width: 1.5"/>
    <path d="M 393.291674 76.013058 
L 370.436524 76.013058 
" clip-path="url(#p0c83bd60c6)" style="fill: #0045dc; fill-opacity: 0.5; stroke: #0045dc; stroke-opacity: 0.5; stroke-width: 1.5"/>
    <path d="M 164.148944 232.711044 
L 161.532141 232.711044 
" clip-path="url(#p0c83bd60c6)" style="fill: #0053d6; fill-opacity: 0.5; stroke: #0053d6; stroke-opacity: 0.5; stroke-width: 1.5"/>
    <path d="M 371.262902 203.796362 
L 364.850258 203.796362 
" clip-path="url(#p0c83bd60c6)" style="fill: #004cd9; fill-opacity: 0.5; stroke: #004cd9; stroke-opacity: 0.5; stroke-width: 1.5"/>
    <path d="M 176.519645 125.449315 
L 155.633667 125.449315 
" clip-path="url(#p0c83bd60c6)" style="fill: #008db8; fill-opacity: 0.5; stroke: #008db8; stroke-opacity: 0.5; stroke-width: 1.5"/>
    <path d="M 138.376874 256.459819 
L 124.390673 256.459819 
" clip-path="url(#p0c83bd60c6)" style="fill: #0009fa; fill-opacity: 0.5; stroke: #0009fa; stroke-opacity: 0.5; stroke-width: 1.5"/>
    <path d="M 300.736779 54.465922 
L 271.689023 54.465922 
" clip-path="url(#p0c83bd60c6)" style="fill: #0087bc; fill-opacity: 0.5; stroke: #0087bc; stroke-opacity: 0.5; stroke-width: 1.5"/>
    <path d="M 200.692694 252.133873 
L 188.822854 252.133873 
" clip-path="url(#p0c83bd60c6)" style="fill: #004ed8; fill-opacity: 0.5; stroke: #004ed8; stroke-opacity: 0.5; stroke-width: 1.5"/>
    <path d="M 83.762832 86.043433 
L 63.902623 86.043433 
" clip-path="url(#p0c83bd60c6)" style="fill: #001cf1; fill-opacity: 0.5; stroke: #001cf1; stroke-opacity: 0.5; stroke-width: 1.5"/>
    <path d="M 146.101691 241.789857 
L 142.830258 241.789857 
" clip-path="url(#p0c83bd60c6)" style="fill: #0053d6; fill-opacity: 0.5; stroke: #0053d6; stroke-opacity: 0.5; stroke-width: 1.5"/>
    <path d="M 115.978111 278.155593 
L 109.485904 278.155593 
" clip-path="url(#p0c83bd60c6)" style="fill: #009ab2; fill-opacity: 0.5; stroke: #009ab2; stroke-opacity: 0.5; stroke-width: 1.5"/>
    <path d="M 89.408357 123.589063 
L 84.61907 123.589063 
" clip-path="url(#p0c83bd60c6)" style="fill: #004ed8; fill-opacity: 0.5; stroke: #004ed8; stroke-opacity: 0.5; stroke-width: 1.5"/>
    <path d="M 164.840205 263.352585 
L 145.714549 263.352585 
" clip-path="url(#p0c83bd60c6)" style="fill: #00a0af; fill-opacity: 0.5; stroke: #00a0af; stroke-opacity: 0.5; stroke-width: 1.5"/>
    <path d="M 289.02726 101.448122 
L 286.191828 101.448122 
" clip-path="url(#p0c83bd60c6)" style="fill: #00b2a6; fill-opacity: 0.5; stroke: #00b2a6; stroke-opacity: 0.5; stroke-width: 1.5"/>
    <path d="M 280.909867 166.175602 
L 278.163348 166.175602 
" clip-path="url(#p0c83bd60c6)" style="fill: #0008fb; fill-opacity: 0.5; stroke: #0008fb; stroke-opacity: 0.5; stroke-width: 1.5"/>
    <path d="M 397.17418 197.612732 
L 376.552005 197.612732 
" clip-path="url(#p0c83bd60c6)" style="fill: #00ff80; fill-opacity: 0.5; stroke: #00ff80; stroke-opacity: 0.5; stroke-width: 1.5"/>
    <path d="M 359.776642 83.88888 
L 334.648139 83.88888 
" clip-path="url(#p0c83bd60c6)" style="fill: #0052d6; fill-opacity: 0.5; stroke: #0052d6; stroke-opacity: 0.5; stroke-width: 1.5"/>
    <path d="M 202.733425 245.08337 
L 174.762017 245.08337 
" clip-path="url(#p0c83bd60c6)" style="fill: #003ae2; fill-opacity: 0.5; stroke: #003ae2; stroke-opacity: 0.5; stroke-width: 1.5"/>
   </g>
  </g>
 </g>
 <defs>
  <clipPath id="p0c83bd60c6">
   <rect x="57.6" y="41.472" width="357.12" height="266.112"/>
  </clipPath>
 </defs>
</svg>
