<?xml version="1.0" encoding="utf-8" standalone="no"?>
<!DOCTYPE svg PUBLIC "-//W3C//DTD SVG 1.1//EN"
  "http://www.w3.org/Graphics/SVG/1.1/DTD/svg11.dtd">
<svg xmlns:xlink="http://www.w3.org/1999/xlink" width="100%"  viewBox="0 0 439.2 324" xmlns="http://www.w3.org/2000/svg" version="1.1">
 <metadata>
  <rdf:RDF xmlns:dc="http://purl.org/dc/elements/1.1/" xmlns:cc="http://creativecommons.org/ns#" xmlns:rdf="http://www.w3.org/1999/02/22-rdf-syntax-ns#">
   <cc:Work>
    <dc:type rdf:resource="http://purl.org/dc/dcmitype/StillImage"/>
    <dc:date>2023-02-05T20:23:25.160286</dc:date>
    <dc:format>image/svg+xml</dc:format>
    <dc:creator>
     <cc:Agent>
      <dc:title>Matplotlib v3.6.3, https://matplotlib.org/</dc:title>
     </cc:Agent>
    </dc:creator>
   </cc:Work>
  </rdf:RDF>
 </metadata>
 <defs>
  <style type="text/css">*{stroke-linejoin: round; stroke-linecap: butt}</style>
 </defs>
 <g id="figure_1">
  <g id="patch_1">
   <path d="M 0 324 
L 439.2 324 
L 439.2 0 
L 0 0 
z
" style="fill: #ffffff"/>
  </g>
  <g id="axes_1">
   <g id="PathCollection_1">
    <path d="M 19.963636 24.42728 
C 20.023377 24.42728 20.080678 24.403545 20.122921 24.361303 
C 20.165164 24.31906 20.188899 24.261758 20.188899 24.202018 
C 20.188899 24.142277 20.165164 24.084976 20.122921 24.042733 
C 20.080678 24.00049 20.023377 23.976755 19.963636 23.976755 
C 19.903896 23.976755 19.846594 24.00049 19.804351 24.042733 
C 19.762109 24.084976 19.738374 24.142277 19.738374 24.202018 
C 19.738374 24.261758 19.762109 24.31906 19.804351 24.361303 
C 19.846594 24.403545 19.903896 24.42728 19.963636 24.42728 
z
" clip-path="url(#pee9f65bf64)" style="fill: #9b64ff; fill-opacity: 0.5; stroke: #9b64ff; stroke-opacity: 0.5"/>
    <path d="M 20.310865 18.138118 
C 20.363975 18.138118 20.414917 18.117017 20.452471 18.079463 
C 20.490025 18.041908 20.511126 17.990967 20.511126 17.937857 
C 20.511126 17.884747 20.490025 17.833805 20.452471 17.796251 
C 20.414917 17.758696 20.363975 17.737596 20.310865 17.737596 
C 20.257755 17.737596 20.206813 17.758696 20.169259 17.796251 
C 20.131705 17.833805 20.110604 17.884747 20.110604 17.937857 
C 20.110604 17.990967 20.131705 18.041908 20.169259 18.079463 
C 20.206813 18.117017 20.257755 18.138118 20.310865 18.138118 
z
" clip-path="url(#pee9f65bf64)" style="fill: #5aa5ff; fill-opacity: 0.5; stroke: #5aa5ff; stroke-opacity: 0.5"/>
    <path d="M 31.488557 16.45008 
C 31.49399 16.45008 31.499201 16.447921 31.503043 16.444079 
C 31.506884 16.440238 31.509043 16.435026 31.509043 16.429593 
C 31.509043 16.42416 31.506884 16.418949 31.503043 16.415108 
C 31.499201 16.411266 31.49399 16.409107 31.488557 16.409107 
C 31.483124 16.409107 31.477913 16.411266 31.474071 16.415108 
C 31.470229 16.418949 31.468071 16.42416 31.468071 16.429593 
C 31.468071 16.435026 31.470229 16.440238 31.474071 16.444079 
C 31.477913 16.447921 31.483124 16.45008 31.488557 16.45008 
z
" clip-path="url(#pee9f65bf64)" style="fill: #24dbff; fill-opacity: 0.5; stroke: #24dbff; stroke-opacity: 0.5"/>
    <path d="M 31.907556 25.369782 
C 31.977166 25.369782 32.043934 25.342126 32.093156 25.292904 
C 32.142378 25.243682 32.170034 25.176914 32.170034 25.107304 
C 32.170034 25.037694 32.142378 24.970925 32.093156 24.921704 
C 32.043934 24.872482 31.977166 24.844826 31.907556 24.844826 
C 31.837946 24.844826 31.771178 24.872482 31.721956 24.921704 
C 31.672734 24.970925 31.645078 25.037694 31.645078 25.107304 
C 31.645078 25.176914 31.672734 25.243682 31.721956 25.292904 
C 31.771178 25.342126 31.837946 25.369782 31.907556 25.369782 
z
" clip-path="url(#pee9f65bf64)" style="fill: #2ed1ff; fill-opacity: 0.5; stroke: #2ed1ff; stroke-opacity: 0.5"/>
    <path d="M 32.147149 30.031337 
C 32.211698 30.031337 32.273613 30.005691 32.319257 29.960047 
C 32.3649 29.914403 32.390546 29.852489 32.390546 29.787939 
C 32.390546 29.723389 32.3649 29.661474 32.319257 29.615831 
C 32.273613 29.570187 32.211698 29.544541 32.147149 29.544541 
C 32.082599 29.544541 32.020684 29.570187 31.97504 29.615831 
C 31.929397 29.661474 31.903751 29.723389 31.903751 29.787939 
C 31.903751 29.852489 31.929397 29.914403 31.97504 29.960047 
C 32.020684 30.005691 32.082599 30.031337 32.147149 30.031337 
z
" clip-path="url(#pee9f65bf64)" style="fill: #09f6ff; fill-opacity: 0.5; stroke: #09f6ff; stroke-opacity: 0.5"/>
    <path d="M 36.339766 31.787008 
C 36.418505 31.787008 36.494031 31.755724 36.549708 31.700047 
C 36.605386 31.64437 36.636669 31.568844 36.636669 31.490105 
C 36.636669 31.411365 36.605386 31.335839 36.549708 31.280162 
C 36.494031 31.224485 36.418505 31.193201 36.339766 31.193201 
C 36.261026 31.193201 36.185501 31.224485 36.129823 31.280162 
C 36.074146 31.335839 36.042862 31.411365 36.042862 31.490105 
C 36.042862 31.568844 36.074146 31.64437 36.129823 31.700047 
C 36.185501 31.755724 36.261026 31.787008 36.339766 31.787008 
z
" clip-path="url(#pee9f65bf64)" style="fill: #e11eff; fill-opacity: 0.5; stroke: #e11eff; stroke-opacity: 0.5"/>
    <path d="M 45.560026 23.832677 
C 45.617694 23.832677 45.673007 23.809765 45.713784 23.768988 
C 45.754561 23.728211 45.777473 23.672898 45.777473 23.61523 
C 45.777473 23.557563 45.754561 23.50225 45.713784 23.461473 
C 45.673007 23.420696 45.617694 23.397784 45.560026 23.397784 
C 45.502359 23.397784 45.447046 23.420696 45.406269 23.461473 
C 45.365492 23.50225 45.34258 23.557563 45.34258 23.61523 
C 45.34258 23.672898 45.365492 23.728211 45.406269 23.768988 
C 45.447046 23.809765 45.502359 23.832677 45.560026 23.832677 
z
" clip-path="url(#pee9f65bf64)" style="fill: #9966ff; fill-opacity: 0.5; stroke: #9966ff; stroke-opacity: 0.5"/>
    <path d="M 45.683414 22.426632 
C 45.731757 22.426632 45.778126 22.407425 45.81231 22.373241 
C 45.846494 22.339058 45.865701 22.292688 45.865701 22.244345 
C 45.865701 22.196002 45.846494 22.149632 45.81231 22.115448 
C 45.778126 22.081264 45.731757 22.062058 45.683414 22.062058 
C 45.63507 22.062058 45.588701 22.081264 45.554517 22.115448 
C 45.520333 22.149632 45.501126 22.196002 45.501126 22.244345 
C 45.501126 22.292688 45.520333 22.339058 45.554517 22.373241 
C 45.588701 22.407425 45.63507 22.426632 45.683414 22.426632 
z
" clip-path="url(#pee9f65bf64)" style="fill: #3fc0ff; fill-opacity: 0.5; stroke: #3fc0ff; stroke-opacity: 0.5"/>
    <path d="M 53.401962 31.571465 
C 53.512038 31.571465 53.617621 31.527732 53.695456 31.449896 
C 53.773292 31.372061 53.817025 31.266478 53.817025 31.156402 
C 53.817025 31.046326 53.773292 30.940743 53.695456 30.862908 
C 53.617621 30.785072 53.512038 30.741339 53.401962 30.741339 
C 53.291886 30.741339 53.186303 30.785072 53.108468 30.862908 
C 53.030632 30.940743 52.986899 31.046326 52.986899 31.156402 
C 52.986899 31.266478 53.030632 31.372061 53.108468 31.449896 
C 53.186303 31.527732 53.291886 31.571465 53.401962 31.571465 
z
" clip-path="url(#pee9f65bf64)" style="fill: #1ce3ff; fill-opacity: 0.5; stroke: #1ce3ff; stroke-opacity: 0.5"/>
    <path d="M 54.568388 21.928469 
C 54.682142 21.928469 54.791252 21.883275 54.871688 21.802839 
C 54.952124 21.722403 54.997318 21.613293 54.997318 21.499539 
C 54.997318 21.385786 54.952124 21.276676 54.871688 21.19624 
C 54.791252 21.115804 54.682142 21.070609 54.568388 21.070609 
C 54.454635 21.070609 54.345525 21.115804 54.265089 21.19624 
C 54.184653 21.276676 54.139458 21.385786 54.139458 21.499539 
C 54.139458 21.613293 54.184653 21.722403 54.265089 21.802839 
C 54.345525 21.883275 54.454635 21.928469 54.568388 21.928469 
z
" clip-path="url(#pee9f65bf64)" style="fill: #7a85ff; fill-opacity: 0.5; stroke: #7a85ff; stroke-opacity: 0.5"/>
    <path d="M 55.918543 15.208121 
C 56.046065 15.208121 56.168382 15.157456 56.258554 15.067284 
C 56.348726 14.977112 56.399391 14.854795 56.399391 14.727273 
C 56.399391 14.59975 56.348726 14.477434 56.258554 14.387262 
C 56.168382 14.29709 56.046065 14.246425 55.918543 14.246425 
C 55.791021 14.246425 55.668704 14.29709 55.578532 14.387262 
C 55.48836 14.477434 55.437695 14.59975 55.437695 14.727273 
C 55.437695 14.854795 55.48836 14.977112 55.578532 15.067284 
C 55.668704 15.157456 55.791021 15.208121 55.918543 15.208121 
z
" clip-path="url(#pee9f65bf64)" style="fill: #b946ff; fill-opacity: 0.5; stroke: #b946ff; stroke-opacity: 0.5"/>
    <path d="M 56.898121 18.453184 
C 56.984494 18.453184 57.067342 18.418868 57.128417 18.357792 
C 57.189493 18.296717 57.223809 18.213869 57.223809 18.127495 
C 57.223809 18.041122 57.189493 17.958274 57.128417 17.897199 
C 57.067342 17.836123 56.984494 17.801807 56.898121 17.801807 
C 56.811747 17.801807 56.728899 17.836123 56.667824 17.897199 
C 56.606749 17.958274 56.572432 18.041122 56.572432 18.127495 
C 56.572432 18.213869 56.606749 18.296717 56.667824 18.357792 
C 56.728899 18.418868 56.811747 18.453184 56.898121 18.453184 
z
" clip-path="url(#pee9f65bf64)" style="fill: #916eff; fill-opacity: 0.5; stroke: #916eff; stroke-opacity: 0.5"/>
    <path d="M 58.583084 29.256018 
C 58.692653 29.256018 58.797748 29.212487 58.875225 29.13501 
C 58.952701 29.057533 58.996233 28.952438 58.996233 28.84287 
C 58.996233 28.733301 58.952701 28.628206 58.875225 28.550729 
C 58.797748 28.473253 58.692653 28.429721 58.583084 28.429721 
C 58.473516 28.429721 58.36842 28.473253 58.290944 28.550729 
C 58.213467 28.628206 58.169935 28.733301 58.169935 28.84287 
C 58.169935 28.952438 58.213467 29.057533 58.290944 29.13501 
C 58.36842 29.212487 58.473516 29.256018 58.583084 29.256018 
z
" clip-path="url(#pee9f65bf64)" style="fill: #17e8ff; fill-opacity: 0.5; stroke: #17e8ff; stroke-opacity: 0.5"/>
    <path d="M 74.27478 17.424395 
C 74.373851 17.424395 74.468878 17.385034 74.538932 17.31498 
C 74.608986 17.244926 74.648347 17.149899 74.648347 17.050828 
C 74.648347 16.951757 74.608986 16.85673 74.538932 16.786676 
C 74.468878 16.716622 74.373851 16.677261 74.27478 16.677261 
C 74.175709 16.677261 74.080682 16.716622 74.010628 16.786676 
C 73.940574 16.85673 73.901213 16.951757 73.901213 17.050828 
C 73.901213 17.149899 73.940574 17.244926 74.010628 17.31498 
C 74.080682 17.385034 74.175709 17.424395 74.27478 17.424395 
z
" clip-path="url(#pee9f65bf64)" style="fill: #9669ff; fill-opacity: 0.5; stroke: #9669ff; stroke-opacity: 0.5"/>
    <path d="M 78.992382 32.735493 
C 79.149116 32.735493 79.299452 32.673222 79.41028 32.562394 
C 79.521107 32.451566 79.583378 32.301231 79.583378 32.144497 
C 79.583378 31.987763 79.521107 31.837427 79.41028 31.726599 
C 79.299452 31.615772 79.149116 31.5535 78.992382 31.5535 
C 78.835648 31.5535 78.685313 31.615772 78.574485 31.726599 
C 78.463657 31.837427 78.401386 31.987763 78.401386 32.144497 
C 78.401386 32.301231 78.463657 32.451566 78.574485 32.562394 
C 78.685313 32.673222 78.835648 32.735493 78.992382 32.735493 
z
" clip-path="url(#pee9f65bf64)" style="fill: #42bdff; fill-opacity: 0.5; stroke: #42bdff; stroke-opacity: 0.5"/>
    <path d="M 82.754707 15.624976 
C 82.792104 15.624976 82.827974 15.610118 82.854417 15.583675 
C 82.88086 15.557232 82.895718 15.521362 82.895718 15.483965 
C 82.895718 15.446569 82.88086 15.410699 82.854417 15.384256 
C 82.827974 15.357813 82.792104 15.342955 82.754707 15.342955 
C 82.717311 15.342955 82.681441 15.357813 82.654998 15.384256 
C 82.628555 15.410699 82.613697 15.446569 82.613697 15.483965 
C 82.613697 15.521362 82.628555 15.557232 82.654998 15.583675 
C 82.681441 15.610118 82.717311 15.624976 82.754707 15.624976 
z
" clip-path="url(#pee9f65bf64)" style="fill: #4eb1ff; fill-opacity: 0.5; stroke: #4eb1ff; stroke-opacity: 0.5"/>
    <path d="M 84.029438 44.084464 
C 84.051511 44.084464 84.072683 44.075694 84.088291 44.060086 
C 84.103899 44.044477 84.112669 44.023305 84.112669 44.001232 
C 84.112669 43.979159 84.103899 43.957987 84.088291 43.942379 
C 84.072683 43.926771 84.051511 43.918001 84.029438 43.918001 
C 84.007364 43.918001 83.986192 43.926771 83.970584 43.942379 
C 83.954976 43.957987 83.946206 43.979159 83.946206 44.001232 
C 83.946206 44.023305 83.954976 44.044477 83.970584 44.060086 
C 83.986192 44.075694 84.007364 44.084464 84.029438 44.084464 
z
" clip-path="url(#pee9f65bf64)" style="fill: #1ee1ff; fill-opacity: 0.5; stroke: #1ee1ff; stroke-opacity: 0.5"/>
    <path d="M 91.553884 23.522778 
C 91.751081 23.522778 91.940229 23.444431 92.079668 23.304991 
C 92.219108 23.165552 92.297455 22.976405 92.297455 22.779207 
C 92.297455 22.58201 92.219108 22.392863 92.079668 22.253423 
C 91.940229 22.113983 91.751081 22.035636 91.553884 22.035636 
C 91.356687 22.035636 91.167539 22.113983 91.0281 22.253423 
C 90.88866 22.392863 90.810313 22.58201 90.810313 22.779207 
C 90.810313 22.976405 90.88866 23.165552 91.0281 23.304991 
C 91.167539 23.444431 91.356687 23.522778 91.553884 23.522778 
z
" clip-path="url(#pee9f65bf64)" style="fill: #ce31ff; fill-opacity: 0.5; stroke: #ce31ff; stroke-opacity: 0.5"/>
    <path d="M 93.439201 39.644385 
C 93.62153 39.644385 93.796415 39.571946 93.925341 39.44302 
C 94.054267 39.314094 94.126707 39.139209 94.126707 38.95688 
C 94.126707 38.774552 94.054267 38.599666 93.925341 38.47074 
C 93.796415 38.341815 93.62153 38.269375 93.439201 38.269375 
C 93.256873 38.269375 93.081987 38.341815 92.953061 38.47074 
C 92.824136 38.599666 92.751696 38.774552 92.751696 38.95688 
C 92.751696 39.139209 92.824136 39.314094 92.953061 39.44302 
C 93.081987 39.571946 93.256873 39.644385 93.439201 39.644385 
z
" clip-path="url(#pee9f65bf64)" style="fill: #5aa5ff; fill-opacity: 0.5; stroke: #5aa5ff; stroke-opacity: 0.5"/>
    <path d="M 98.07086 21.838707 
C 98.241992 21.838707 98.406139 21.770715 98.527148 21.649706 
C 98.648157 21.528697 98.716148 21.364551 98.716148 21.193418 
C 98.716148 21.022286 98.648157 20.858139 98.527148 20.73713 
C 98.406139 20.616122 98.241992 20.54813 98.07086 20.54813 
C 97.899727 20.54813 97.735581 20.616122 97.614572 20.73713 
C 97.493563 20.858139 97.425571 21.022286 97.425571 21.193418 
C 97.425571 21.364551 97.493563 21.528697 97.614572 21.649706 
C 97.735581 21.770715 97.899727 21.838707 98.07086 21.838707 
z
" clip-path="url(#pee9f65bf64)" style="fill: #6798ff; fill-opacity: 0.5; stroke: #6798ff; stroke-opacity: 0.5"/>
    <path d="M 101.183842 36.161199 
C 101.306112 36.161199 101.42339 36.11262 101.509848 36.026162 
C 101.596306 35.939705 101.644884 35.822426 101.644884 35.700156 
C 101.644884 35.577886 101.596306 35.460608 101.509848 35.37415 
C 101.42339 35.287692 101.306112 35.239114 101.183842 35.239114 
C 101.061572 35.239114 100.944294 35.287692 100.857836 35.37415 
C 100.771378 35.460608 100.7228 35.577886 100.7228 35.700156 
C 100.7228 35.822426 100.771378 35.939705 100.857836 36.026162 
C 100.944294 36.11262 101.061572 36.161199 101.183842 36.161199 
z
" clip-path="url(#pee9f65bf64)" style="fill: #26d9ff; fill-opacity: 0.5; stroke: #26d9ff; stroke-opacity: 0.5"/>
    <path d="M 101.360707 29.912727 
C 101.585309 29.912727 101.800742 29.823491 101.95956 29.664673 
C 102.118378 29.505856 102.207613 29.290422 102.207613 29.06582 
C 102.207613 28.841218 102.118378 28.625785 101.95956 28.466967 
C 101.800742 28.308149 101.585309 28.218914 101.360707 28.218914 
C 101.136104 28.218914 100.920671 28.308149 100.761853 28.466967 
C 100.603036 28.625785 100.5138 28.841218 100.5138 29.06582 
C 100.5138 29.290422 100.603036 29.505856 100.761853 29.664673 
C 100.920671 29.823491 101.136104 29.912727 101.360707 29.912727 
z
" clip-path="url(#pee9f65bf64)" style="fill: #b44bff; fill-opacity: 0.5; stroke: #b44bff; stroke-opacity: 0.5"/>
    <path d="M 105.2363 36.01039 
C 105.368696 36.01039 105.495687 35.957788 105.589305 35.86417 
C 105.682924 35.770552 105.735525 35.64356 105.735525 35.511164 
C 105.735525 35.378768 105.682924 35.251777 105.589305 35.158158 
C 105.495687 35.06454 105.368696 35.011939 105.2363 35.011939 
C 105.103903 35.011939 104.976912 35.06454 104.883294 35.158158 
C 104.789675 35.251777 104.737074 35.378768 104.737074 35.511164 
C 104.737074 35.64356 104.789675 35.770552 104.883294 35.86417 
C 104.976912 35.957788 105.103903 36.01039 105.2363 36.01039 
z
" clip-path="url(#pee9f65bf64)" style="fill: #cc33ff; fill-opacity: 0.5; stroke: #cc33ff; stroke-opacity: 0.5"/>
    <path d="M 106.251859 24.224914 
C 106.366385 24.224914 106.476235 24.179412 106.557217 24.09843 
C 106.638199 24.017448 106.683701 23.907597 106.683701 23.793071 
C 106.683701 23.678545 106.638199 23.568695 106.557217 23.487713 
C 106.476235 23.406731 106.366385 23.361229 106.251859 23.361229 
C 106.137333 23.361229 106.027482 23.406731 105.9465 23.487713 
C 105.865518 23.568695 105.820017 23.678545 105.820017 23.793071 
C 105.820017 23.907597 105.865518 24.017448 105.9465 24.09843 
C 106.027482 24.179412 106.137333 24.224914 106.251859 24.224914 
z
" clip-path="url(#pee9f65bf64)" style="fill: #9c63ff; fill-opacity: 0.5; stroke: #9c63ff; stroke-opacity: 0.5"/>
    <path d="M 106.463329 21.563563 
C 106.732966 21.563563 106.991596 21.456435 107.182259 21.265773 
C 107.372921 21.075111 107.480049 20.816481 107.480049 20.546843 
C 107.480049 20.277206 107.372921 20.018576 107.182259 19.827914 
C 106.991596 19.637252 106.732966 19.530124 106.463329 19.530124 
C 106.193692 19.530124 105.935062 19.637252 105.7444 19.827914 
C 105.553737 20.018576 105.446609 20.277206 105.446609 20.546843 
C 105.446609 20.816481 105.553737 21.075111 105.7444 21.265773 
C 105.935062 21.456435 106.193692 21.563563 106.463329 21.563563 
z
" clip-path="url(#pee9f65bf64)" style="fill: #de21ff; fill-opacity: 0.5; stroke: #de21ff; stroke-opacity: 0.5"/>
    <path d="M 108.273685 24.290353 
C 108.467257 24.290353 108.652926 24.213446 108.789802 24.07657 
C 108.926678 23.939694 109.003585 23.754025 109.003585 23.560453 
C 109.003585 23.366881 108.926678 23.181212 108.789802 23.044336 
C 108.652926 22.90746 108.467257 22.830553 108.273685 22.830553 
C 108.080114 22.830553 107.894444 22.90746 107.757568 23.044336 
C 107.620692 23.181212 107.543785 23.366881 107.543785 23.560453 
C 107.543785 23.754025 107.620692 23.939694 107.757568 24.07657 
C 107.894444 24.213446 108.080114 24.290353 108.273685 24.290353 
z
" clip-path="url(#pee9f65bf64)" style="fill: #05faff; fill-opacity: 0.5; stroke: #05faff; stroke-opacity: 0.5"/>
    <path d="M 111.436503 24.996685 
C 111.696615 24.996685 111.946108 24.893342 112.130034 24.709415 
C 112.313961 24.525489 112.417304 24.275996 112.417304 24.015884 
C 112.417304 23.755773 112.313961 23.50628 112.130034 23.322353 
C 111.946108 23.138426 111.696615 23.035083 111.436503 23.035083 
C 111.176392 23.035083 110.926899 23.138426 110.742972 23.322353 
C 110.559046 23.50628 110.455702 23.755773 110.455702 24.015884 
C 110.455702 24.275996 110.559046 24.525489 110.742972 24.709415 
C 110.926899 24.893342 111.176392 24.996685 111.436503 24.996685 
z
" clip-path="url(#pee9f65bf64)" style="fill: #d629ff; fill-opacity: 0.5; stroke: #d629ff; stroke-opacity: 0.5"/>
    <path d="M 120.500037 44.45373 
C 120.617826 44.45373 120.730807 44.406932 120.814097 44.323642 
C 120.897386 44.240353 120.944184 44.127372 120.944184 44.009583 
C 120.944184 43.891793 120.897386 43.778813 120.814097 43.695523 
C 120.730807 43.612234 120.617826 43.565436 120.500037 43.565436 
C 120.382248 43.565436 120.269267 43.612234 120.185978 43.695523 
C 120.102688 43.778813 120.05589 43.891793 120.05589 44.009583 
C 120.05589 44.127372 120.102688 44.240353 120.185978 44.323642 
C 120.269267 44.406932 120.382248 44.45373 120.500037 44.45373 
z
" clip-path="url(#pee9f65bf64)" style="fill: #f50aff; fill-opacity: 0.5; stroke: #f50aff; stroke-opacity: 0.5"/>
    <path d="M 125.511951 37.678227 
C 125.842083 37.678227 126.158738 37.547064 126.392177 37.313625 
C 126.625616 37.080186 126.756778 36.763531 126.756778 36.433399 
C 126.756778 36.103267 126.625616 35.786611 126.392177 35.553173 
C 126.158738 35.319734 125.842083 35.188571 125.511951 35.188571 
C 125.181818 35.188571 124.865163 35.319734 124.631724 35.553173 
C 124.398286 35.786611 124.267123 36.103267 124.267123 36.433399 
C 124.267123 36.763531 124.398286 37.080186 124.631724 37.313625 
C 124.865163 37.547064 125.181818 37.678227 125.511951 37.678227 
z
" clip-path="url(#pee9f65bf64)" style="fill: #c837ff; fill-opacity: 0.5; stroke: #c837ff; stroke-opacity: 0.5"/>
    <path d="M 129.557009 32.460819 
C 129.875057 32.460819 130.180121 32.334457 130.405015 32.109564 
C 130.629908 31.88467 130.75627 31.579606 130.75627 31.261558 
C 130.75627 30.943511 130.629908 30.638447 130.405015 30.413553 
C 130.180121 30.188659 129.875057 30.062298 129.557009 30.062298 
C 129.238962 30.062298 128.933898 30.188659 128.709004 30.413553 
C 128.48411 30.638447 128.357749 30.943511 128.357749 31.261558 
C 128.357749 31.579606 128.48411 31.88467 128.709004 32.109564 
C 128.933898 32.334457 129.238962 32.460819 129.557009 32.460819 
z
" clip-path="url(#pee9f65bf64)" style="fill: #b44bff; fill-opacity: 0.5; stroke: #b44bff; stroke-opacity: 0.5"/>
    <path d="M 130.610043 26.838683 
C 131.055351 26.838683 131.48248 26.661761 131.79736 26.346881 
C 132.11224 26.032 132.289163 25.604871 132.289163 25.159563 
C 132.289163 24.714256 132.11224 24.287126 131.79736 23.972246 
C 131.48248 23.657366 131.055351 23.480443 130.610043 23.480443 
C 130.164735 23.480443 129.737606 23.657366 129.422726 23.972246 
C 129.107845 24.287126 128.930923 24.714256 128.930923 25.159563 
C 128.930923 25.604871 129.107845 26.032 129.422726 26.346881 
C 129.737606 26.661761 130.164735 26.838683 130.610043 26.838683 
z
" clip-path="url(#pee9f65bf64)" style="fill: #01feff; fill-opacity: 0.5; stroke: #01feff; stroke-opacity: 0.5"/>
    <path d="M 133.857769 32.731981 
C 134.247513 32.731981 134.621346 32.577134 134.896936 32.301544 
C 135.172526 32.025954 135.327373 31.652121 135.327373 31.262377 
C 135.327373 30.872634 135.172526 30.498801 134.896936 30.223211 
C 134.621346 29.947621 134.247513 29.792774 133.857769 29.792774 
C 133.468026 29.792774 133.094193 29.947621 132.818603 30.223211 
C 132.543013 30.498801 132.388166 30.872634 132.388166 31.262377 
C 132.388166 31.652121 132.543013 32.025954 132.818603 32.301544 
C 133.094193 32.577134 133.468026 32.731981 133.857769 32.731981 
z
" clip-path="url(#pee9f65bf64)" style="fill: #2dd2ff; fill-opacity: 0.5; stroke: #2dd2ff; stroke-opacity: 0.5"/>
    <path d="M 135.601322 48.218996 
C 135.822027 48.218996 136.033722 48.131309 136.189784 47.975247 
C 136.345846 47.819185 136.433533 47.60749 136.433533 47.386785 
C 136.433533 47.16608 136.345846 46.954385 136.189784 46.798323 
C 136.033722 46.642261 135.822027 46.554574 135.601322 46.554574 
C 135.380617 46.554574 135.168922 46.642261 135.01286 46.798323 
C 134.856798 46.954385 134.769111 47.16608 134.769111 47.386785 
C 134.769111 47.60749 134.856798 47.819185 135.01286 47.975247 
C 135.168922 48.131309 135.380617 48.218996 135.601322 48.218996 
z
" clip-path="url(#pee9f65bf64)" style="fill: #708fff; fill-opacity: 0.5; stroke: #708fff; stroke-opacity: 0.5"/>
    <path d="M 142.602908 30.647893 
C 142.997679 30.647893 143.376334 30.491049 143.655479 30.211904 
C 143.934624 29.932759 144.091469 29.554104 144.091469 29.159333 
C 144.091469 28.764562 143.934624 28.385907 143.655479 28.106762 
C 143.376334 27.827617 142.997679 27.670773 142.602908 27.670773 
C 142.208138 27.670773 141.829482 27.827617 141.550337 28.106762 
C 141.271192 28.385907 141.114348 28.764562 141.114348 29.159333 
C 141.114348 29.554104 141.271192 29.932759 141.550337 30.211904 
C 141.829482 30.491049 142.208138 30.647893 142.602908 30.647893 
z
" clip-path="url(#pee9f65bf64)" style="fill: #24dbff; fill-opacity: 0.5; stroke: #24dbff; stroke-opacity: 0.5"/>
    <path d="M 142.736584 31.158623 
C 143.001736 31.158623 143.256064 31.053277 143.443554 30.865786 
C 143.631045 30.678295 143.736391 30.423967 143.736391 30.158815 
C 143.736391 29.893663 143.631045 29.639335 143.443554 29.451844 
C 143.256064 29.264353 143.001736 29.159007 142.736584 29.159007 
C 142.471432 29.159007 142.217104 29.264353 142.029613 29.451844 
C 141.842122 29.639335 141.736776 29.893663 141.736776 30.158815 
C 141.736776 30.423967 141.842122 30.678295 142.029613 30.865786 
C 142.217104 31.053277 142.471432 31.158623 142.736584 31.158623 
z
" clip-path="url(#pee9f65bf64)" style="fill: #8a75ff; fill-opacity: 0.5; stroke: #8a75ff; stroke-opacity: 0.5"/>
    <path d="M 146.363385 39.232351 
C 147.044881 39.232351 147.698557 38.96159 148.180447 38.479699 
C 148.662337 37.997809 148.933099 37.344133 148.933099 36.662637 
C 148.933099 35.981141 148.662337 35.327466 148.180447 34.845575 
C 147.698557 34.363685 147.044881 34.092924 146.363385 34.092924 
C 145.681889 34.092924 145.028214 34.363685 144.546323 34.845575 
C 144.064433 35.327466 143.793671 35.981141 143.793671 36.662637 
C 143.793671 37.344133 144.064433 37.997809 144.546323 38.479699 
C 145.028214 38.96159 145.681889 39.232351 146.363385 39.232351 
z
" clip-path="url(#pee9f65bf64)" style="fill: #b946ff; fill-opacity: 0.5; stroke: #b946ff; stroke-opacity: 0.5"/>
    <path d="M 148.751285 54.554381 
C 149.55109 54.554381 150.318244 54.236615 150.883791 53.671068 
C 151.449338 53.105521 151.767104 52.338366 151.767104 51.538562 
C 151.767104 50.738758 151.449338 49.971604 150.883791 49.406056 
C 150.318244 48.840509 149.55109 48.522744 148.751285 48.522744 
C 147.951481 48.522744 147.184327 48.840509 146.61878 49.406056 
C 146.053233 49.971604 145.735467 50.738758 145.735467 51.538562 
C 145.735467 52.338366 146.053233 53.105521 146.61878 53.671068 
C 147.184327 54.236615 147.951481 54.554381 148.751285 54.554381 
z
" clip-path="url(#pee9f65bf64)" style="fill: #8679ff; fill-opacity: 0.5; stroke: #8679ff; stroke-opacity: 0.5"/>
    <path d="M 149.434034 49.209605 
C 150.199184 49.209605 150.933098 48.905608 151.474141 48.364565 
C 152.015184 47.823522 152.319181 47.089608 152.319181 46.324458 
C 152.319181 45.559308 152.015184 44.825393 151.474141 44.284351 
C 150.933098 43.743308 150.199184 43.43931 149.434034 43.43931 
C 148.668884 43.43931 147.934969 43.743308 147.393927 44.284351 
C 146.852884 44.825393 146.548887 45.559308 146.548887 46.324458 
C 146.548887 47.089608 146.852884 47.823522 147.393927 48.364565 
C 147.934969 48.905608 148.668884 49.209605 149.434034 49.209605 
z
" clip-path="url(#pee9f65bf64)" style="fill: #5aa5ff; fill-opacity: 0.5; stroke: #5aa5ff; stroke-opacity: 0.5"/>
    <path d="M 150.337358 41.364505 
C 150.827621 41.364505 151.29787 41.169722 151.644539 40.823053 
C 151.991207 40.476385 152.185991 40.006135 152.185991 39.515872 
C 152.185991 39.025609 151.991207 38.55536 151.644539 38.208691 
C 151.29787 37.862023 150.827621 37.667239 150.337358 37.667239 
C 149.847094 37.667239 149.376845 37.862023 149.030176 38.208691 
C 148.683508 38.55536 148.488724 39.025609 148.488724 39.515872 
C 148.488724 40.006135 148.683508 40.476385 149.030176 40.823053 
C 149.376845 41.169722 149.847094 41.364505 150.337358 41.364505 
z
" clip-path="url(#pee9f65bf64)" style="fill: #bc43ff; fill-opacity: 0.5; stroke: #bc43ff; stroke-opacity: 0.5"/>
    <path d="M 150.769138 36.823295 
C 151.289833 36.823295 151.789271 36.616421 152.157458 36.248234 
C 152.525645 35.880047 152.732519 35.380609 152.732519 34.859914 
C 152.732519 34.339219 152.525645 33.83978 152.157458 33.471593 
C 151.789271 33.103406 151.289833 32.896532 150.769138 32.896532 
C 150.248443 32.896532 149.749004 33.103406 149.380817 33.471593 
C 149.01263 33.83978 148.805756 34.339219 148.805756 34.859914 
C 148.805756 35.380609 149.01263 35.880047 149.380817 36.248234 
C 149.749004 36.616421 150.248443 36.823295 150.769138 36.823295 
z
" clip-path="url(#pee9f65bf64)" style="fill: #807fff; fill-opacity: 0.5; stroke: #807fff; stroke-opacity: 0.5"/>
    <path d="M 161.663773 59.480601 
C 162.495433 59.480601 163.293142 59.150179 163.881215 58.562107 
C 164.469288 57.974034 164.79971 57.176325 164.79971 56.344664 
C 164.79971 55.513004 164.469288 54.715295 163.881215 54.127222 
C 163.293142 53.53915 162.495433 53.208728 161.663773 53.208728 
C 160.832113 53.208728 160.034403 53.53915 159.446331 54.127222 
C 158.858258 54.715295 158.527836 55.513004 158.527836 56.344664 
C 158.527836 57.176325 158.858258 57.974034 159.446331 58.562107 
C 160.034403 59.150179 160.832113 59.480601 161.663773 59.480601 
z
" clip-path="url(#pee9f65bf64)" style="fill: #23dcff; fill-opacity: 0.5; stroke: #23dcff; stroke-opacity: 0.5"/>
    <path d="M 162.470652 42.53737 
C 163.282169 42.53737 164.060558 42.214951 164.634388 41.641121 
C 165.208218 41.067292 165.530637 40.288902 165.530637 39.477385 
C 165.530637 38.665867 165.208218 37.887478 164.634388 37.313649 
C 164.060558 36.739819 163.282169 36.4174 162.470652 36.4174 
C 161.659134 36.4174 160.880745 36.739819 160.306915 37.313649 
C 159.733086 37.887478 159.410666 38.665867 159.410666 39.477385 
C 159.410666 40.288902 159.733086 41.067292 160.306915 41.641121 
C 160.880745 42.214951 161.659134 42.53737 162.470652 42.53737 
z
" clip-path="url(#pee9f65bf64)" style="fill: #7c83ff; fill-opacity: 0.5; stroke: #7c83ff; stroke-opacity: 0.5"/>
    <path d="M 165.586223 40.250799 
C 166.351484 40.250799 167.085504 39.946758 167.626625 39.405637 
C 168.167746 38.864516 168.471788 38.130495 168.471788 37.365235 
C 168.471788 36.599974 168.167746 35.865953 167.626625 35.324832 
C 167.085504 34.783711 166.351484 34.47967 165.586223 34.47967 
C 164.820963 34.47967 164.086942 34.783711 163.545821 35.324832 
C 163.0047 35.865953 162.700659 36.599974 162.700659 37.365235 
C 162.700659 38.130495 163.0047 38.864516 163.545821 39.405637 
C 164.086942 39.946758 164.820963 40.250799 165.586223 40.250799 
z
" clip-path="url(#pee9f65bf64)" style="fill: #a55aff; fill-opacity: 0.5; stroke: #a55aff; stroke-opacity: 0.5"/>
    <path d="M 168.675932 58.297351 
C 169.931497 58.297351 171.135805 57.79851 172.023624 56.910692 
C 172.911442 56.022874 173.410283 54.818565 173.410283 53.563001 
C 173.410283 52.307436 172.911442 51.103127 172.023624 50.215309 
C 171.135805 49.327491 169.931497 48.82865 168.675932 48.82865 
C 167.420368 48.82865 166.216059 49.327491 165.328241 50.215309 
C 164.440423 51.103127 163.941581 52.307436 163.941581 53.563001 
C 163.941581 54.818565 164.440423 56.022874 165.328241 56.910692 
C 166.216059 57.79851 167.420368 58.297351 168.675932 58.297351 
z
" clip-path="url(#pee9f65bf64)" style="fill: #8c73ff; fill-opacity: 0.5; stroke: #8c73ff; stroke-opacity: 0.5"/>
    <path d="M 174.016355 52.84085 
C 175.357807 52.84085 176.644497 52.307885 177.593047 51.359335 
C 178.541597 50.410785 179.074562 49.124095 179.074562 47.782643 
C 179.074562 46.441191 178.541597 45.1545 177.593047 44.20595 
C 176.644497 43.2574 175.357807 42.724436 174.016355 42.724436 
C 172.674902 42.724436 171.388212 43.2574 170.439662 44.20595 
C 169.491112 45.1545 168.958147 46.441191 168.958147 47.782643 
C 168.958147 49.124095 169.491112 50.410785 170.439662 51.359335 
C 171.388212 52.307885 172.674902 52.84085 174.016355 52.84085 
z
" clip-path="url(#pee9f65bf64)" style="fill: #0ff0ff; fill-opacity: 0.5; stroke: #0ff0ff; stroke-opacity: 0.5"/>
    <path d="M 185.808349 52.529686 
C 186.09494 52.529686 186.36983 52.415822 186.57248 52.213172 
C 186.77513 52.010523 186.888993 51.735632 186.888993 51.449042 
C 186.888993 51.162452 186.77513 50.887561 186.57248 50.684911 
C 186.36983 50.482261 186.09494 50.368398 185.808349 50.368398 
C 185.521759 50.368398 185.246869 50.482261 185.044219 50.684911 
C 184.841569 50.887561 184.727706 51.162452 184.727706 51.449042 
C 184.727706 51.735632 184.841569 52.010523 185.044219 52.213172 
C 185.246869 52.415822 185.521759 52.529686 185.808349 52.529686 
z
" clip-path="url(#pee9f65bf64)" style="fill: #16e9ff; fill-opacity: 0.5; stroke: #16e9ff; stroke-opacity: 0.5"/>
    <path d="M 190.815506 67.500261 
C 191.774633 67.500261 192.694606 67.119196 193.372812 66.440991 
C 194.051017 65.762786 194.432082 64.842813 194.432082 63.883686 
C 194.432082 62.924559 194.051017 62.004586 193.372812 61.326381 
C 192.694606 60.648175 191.774633 60.26711 190.815506 60.26711 
C 189.856379 60.26711 188.936406 60.648175 188.258201 61.326381 
C 187.579996 62.004586 187.198931 62.924559 187.198931 63.883686 
C 187.198931 64.842813 187.579996 65.762786 188.258201 66.440991 
C 188.936406 67.119196 189.856379 67.500261 190.815506 67.500261 
z
" clip-path="url(#pee9f65bf64)" style="fill: #e11eff; fill-opacity: 0.5; stroke: #e11eff; stroke-opacity: 0.5"/>
    <path d="M 196.466056 66.038431 
C 197.830921 66.038431 199.140068 65.496165 200.105173 64.53106 
C 201.070278 63.565955 201.612544 62.256808 201.612544 60.891943 
C 201.612544 59.527079 201.070278 58.217932 200.105173 57.252827 
C 199.140068 56.287722 197.830921 55.745455 196.466056 55.745455 
C 195.101192 55.745455 193.792045 56.287722 192.82694 57.252827 
C 191.861835 58.217932 191.319568 59.527079 191.319568 60.891943 
C 191.319568 62.256808 191.861835 63.565955 192.82694 64.53106 
C 193.792045 65.496165 195.101192 66.038431 196.466056 66.038431 
z
" clip-path="url(#pee9f65bf64)" style="fill: #9f60ff; fill-opacity: 0.5; stroke: #9f60ff; stroke-opacity: 0.5"/>
    <path d="M 200.218725 69.753686 
C 202.028754 69.753686 203.764892 69.034554 205.044775 67.754671 
C 206.324658 66.474787 207.04379 64.738649 207.04379 62.928621 
C 207.04379 61.118593 206.324658 59.382455 205.044775 58.102571 
C 203.764892 56.822688 202.028754 56.103556 200.218725 56.103556 
C 198.408697 56.103556 196.672559 56.822688 195.392676 58.102571 
C 194.112792 59.382455 193.39366 61.118593 193.39366 62.928621 
C 193.39366 64.738649 194.112792 66.474787 195.392676 67.754671 
C 196.672559 69.034554 198.408697 69.753686 200.218725 69.753686 
z
" clip-path="url(#pee9f65bf64)" style="fill: #ae51ff; fill-opacity: 0.5; stroke: #ae51ff; stroke-opacity: 0.5"/>
    <path d="M 208.484975 58.399081 
C 209.509347 58.399081 210.4919 57.992094 211.21624 57.267754 
C 211.94058 56.543414 212.347567 55.560861 212.347567 54.536489 
C 212.347567 53.512118 211.94058 52.529564 211.21624 51.805224 
C 210.4919 51.080884 209.509347 50.673897 208.484975 50.673897 
C 207.460604 50.673897 206.47805 51.080884 205.75371 51.805224 
C 205.02937 52.529564 204.622383 53.512118 204.622383 54.536489 
C 204.622383 55.560861 205.02937 56.543414 205.75371 57.267754 
C 206.47805 57.992094 207.460604 58.399081 208.484975 58.399081 
z
" clip-path="url(#pee9f65bf64)" style="fill: #32cdff; fill-opacity: 0.5; stroke: #32cdff; stroke-opacity: 0.5"/>
    <path d="M 220.526983 73.922046 
C 221.696667 73.922046 222.818601 73.457326 223.645692 72.630235 
C 224.472784 71.803143 224.937504 70.681209 224.937504 69.511525 
C 224.937504 68.341842 224.472784 67.219908 223.645692 66.392816 
C 222.818601 65.565725 221.696667 65.101005 220.526983 65.101005 
C 219.3573 65.101005 218.235366 65.565725 217.408274 66.392816 
C 216.581183 67.219908 216.116463 68.341842 216.116463 69.511525 
C 216.116463 70.681209 216.581183 71.803143 217.408274 72.630235 
C 218.235366 73.457326 219.3573 73.922046 220.526983 73.922046 
z
" clip-path="url(#pee9f65bf64)" style="fill: #ea15ff; fill-opacity: 0.5; stroke: #ea15ff; stroke-opacity: 0.5"/>
    <path d="M 227.706848 68.091795 
C 229.181595 68.091795 230.596138 67.505872 231.638942 66.463068 
C 232.681745 65.420265 233.267668 64.005721 233.267668 62.530974 
C 233.267668 61.056227 232.681745 59.641684 231.638942 58.59888 
C 230.596138 57.556077 229.181595 56.970154 227.706848 56.970154 
C 226.232101 56.970154 224.817558 57.556077 223.774754 58.59888 
C 222.731951 59.641684 222.146028 61.056227 222.146028 62.530974 
C 222.146028 64.005721 222.731951 65.420265 223.774754 66.463068 
C 224.817558 67.505872 226.232101 68.091795 227.706848 68.091795 
z
" clip-path="url(#pee9f65bf64)" style="fill: #00ffff; fill-opacity: 0.5; stroke: #00ffff; stroke-opacity: 0.5"/>
    <path d="M 230.062984 82.699348 
C 232.44345 82.699348 234.726738 81.75358 236.409981 80.070336 
C 238.093224 78.387093 239.038993 76.103805 239.038993 73.72334 
C 239.038993 71.342875 238.093224 69.059587 236.409981 67.376343 
C 234.726738 65.6931 232.44345 64.747331 230.062984 64.747331 
C 227.682519 64.747331 225.399231 65.6931 223.715988 67.376343 
C 222.032745 69.059587 221.086976 71.342875 221.086976 73.72334 
C 221.086976 76.103805 222.032745 78.387093 223.715988 80.070336 
C 225.399231 81.75358 227.682519 82.699348 230.062984 82.699348 
z
" clip-path="url(#pee9f65bf64)" style="fill: #42bdff; fill-opacity: 0.5; stroke: #42bdff; stroke-opacity: 0.5"/>
    <path d="M 237.685449 92.302778 
C 239.159173 92.302778 240.572736 91.717262 241.614816 90.675181 
C 242.656896 89.633101 243.242413 88.219539 243.242413 86.745815 
C 243.242413 85.272091 242.656896 83.858528 241.614816 82.816448 
C 240.572736 81.774368 239.159173 81.188851 237.685449 81.188851 
C 236.211725 81.188851 234.798163 81.774368 233.756083 82.816448 
C 232.714003 83.858528 232.128486 85.272091 232.128486 86.745815 
C 232.128486 88.219539 232.714003 89.633101 233.756083 90.675181 
C 234.798163 91.717262 236.211725 92.302778 237.685449 92.302778 
z
" clip-path="url(#pee9f65bf64)" style="fill: #eb14ff; fill-opacity: 0.5; stroke: #eb14ff; stroke-opacity: 0.5"/>
    <path d="M 239.273279 89.189813 
C 241.327036 89.189813 243.296953 88.373847 244.749179 86.921621 
C 246.201404 85.469396 247.017371 83.499479 247.017371 81.445722 
C 247.017371 79.391964 246.201404 77.422047 244.749179 75.969822 
C 243.296953 74.517596 241.327036 73.70163 239.273279 73.70163 
C 237.219522 73.70163 235.249605 74.517596 233.797379 75.969822 
C 232.345154 77.422047 231.529187 79.391964 231.529187 81.445722 
C 231.529187 83.499479 232.345154 85.469396 233.797379 86.921621 
C 235.249605 88.373847 237.219522 89.189813 239.273279 89.189813 
z
" clip-path="url(#pee9f65bf64)" style="fill: #a55aff; fill-opacity: 0.5; stroke: #a55aff; stroke-opacity: 0.5"/>
    <path d="M 245.828588 73.556233 
C 247.856237 73.556233 249.801112 72.750639 251.234876 71.316875 
C 252.668641 69.883111 253.474234 67.938236 253.474234 65.910587 
C 253.474234 63.882938 252.668641 61.938063 251.234876 60.504299 
C 249.801112 59.070535 247.856237 58.264941 245.828588 58.264941 
C 243.800939 58.264941 241.856065 59.070535 240.4223 60.504299 
C 238.988536 61.938063 238.182943 63.882938 238.182943 65.910587 
C 238.182943 67.938236 238.988536 69.883111 240.4223 71.316875 
C 241.856065 72.750639 243.800939 73.556233 245.828588 73.556233 
z
" clip-path="url(#pee9f65bf64)" style="fill: #4fb0ff; fill-opacity: 0.5; stroke: #4fb0ff; stroke-opacity: 0.5"/>
    <path d="M 249.602101 98.571063 
C 252.514761 98.571063 255.308518 97.413851 257.368079 95.35429 
C 259.42764 93.294728 260.584852 90.500972 260.584852 87.588312 
C 260.584852 84.675653 259.42764 81.881896 257.368079 79.822335 
C 255.308518 77.762774 252.514761 76.605562 249.602101 76.605562 
C 246.689442 76.605562 243.895685 77.762774 241.836124 79.822335 
C 239.776563 81.881896 238.619351 84.675653 238.619351 87.588312 
C 238.619351 90.500972 239.776563 93.294728 241.836124 95.35429 
C 243.895685 97.413851 246.689442 98.571063 249.602101 98.571063 
z
" clip-path="url(#pee9f65bf64)" style="fill: #a758ff; fill-opacity: 0.5; stroke: #a758ff; stroke-opacity: 0.5"/>
    <path d="M 251.356451 80.461532 
C 254.773074 80.461532 258.050221 79.104093 260.466139 76.688176 
C 262.882056 74.272258 264.239495 70.995111 264.239495 67.578488 
C 264.239495 64.161865 262.882056 60.884717 260.466139 58.4688 
C 258.050221 56.052883 254.773074 54.695444 251.356451 54.695444 
C 247.939828 54.695444 244.662681 56.052883 242.246763 58.4688 
C 239.830846 60.884717 238.473407 64.161865 238.473407 67.578488 
C 238.473407 70.995111 239.830846 74.272258 242.246763 76.688176 
C 244.662681 79.104093 247.939828 80.461532 251.356451 80.461532 
z
" clip-path="url(#pee9f65bf64)" style="fill: #7788ff; fill-opacity: 0.5; stroke: #7788ff; stroke-opacity: 0.5"/>
    <path d="M 259.584542 110.281231 
C 262.695007 110.281231 265.678495 109.04543 267.877926 106.845998 
C 270.077357 104.646567 271.313158 101.66308 271.313158 98.552614 
C 271.313158 95.442149 270.077357 92.458662 267.877926 90.25923 
C 265.678495 88.059799 262.695007 86.823998 259.584542 86.823998 
C 256.474076 86.823998 253.490589 88.059799 251.291158 90.25923 
C 249.091727 92.458662 247.855926 95.442149 247.855926 98.552614 
C 247.855926 101.66308 249.091727 104.646567 251.291158 106.845998 
C 253.490589 109.04543 256.474076 110.281231 259.584542 110.281231 
z
" clip-path="url(#pee9f65bf64)" style="fill: #d728ff; fill-opacity: 0.5; stroke: #d728ff; stroke-opacity: 0.5"/>
    <path d="M 263.585407 114.450806 
C 267.606399 114.450806 271.463242 112.853249 274.306512 110.009979 
C 277.149783 107.166709 278.74734 103.309865 278.74734 99.288874 
C 278.74734 95.267882 277.149783 91.411038 274.306512 88.567768 
C 271.463242 85.724498 267.606399 84.126941 263.585407 84.126941 
C 259.564415 84.126941 255.707572 85.724498 252.864302 88.567768 
C 250.021031 91.411038 248.423474 95.267882 248.423474 99.288874 
C 248.423474 103.309865 250.021031 107.166709 252.864302 110.009979 
C 255.707572 112.853249 259.564415 114.450806 263.585407 114.450806 
z
" clip-path="url(#pee9f65bf64)" style="fill: #c936ff; fill-opacity: 0.5; stroke: #c936ff; stroke-opacity: 0.5"/>
    <path d="M 272.071435 109.904999 
C 273.737994 109.904999 275.33652 109.242868 276.514955 108.064433 
C 277.693391 106.885997 278.355522 105.287472 278.355522 103.620912 
C 278.355522 101.954353 277.693391 100.355827 276.514955 99.177392 
C 275.33652 97.998956 273.737994 97.336825 272.071435 97.336825 
C 270.404876 97.336825 268.80635 97.998956 267.627914 99.177392 
C 266.449479 100.355827 265.787348 101.954353 265.787348 103.620912 
C 265.787348 105.287472 266.449479 106.885997 267.627914 108.064433 
C 268.80635 109.242868 270.404876 109.904999 272.071435 109.904999 
z
" clip-path="url(#pee9f65bf64)" style="fill: #23dcff; fill-opacity: 0.5; stroke: #23dcff; stroke-opacity: 0.5"/>
    <path d="M 275.511559 98.233558 
C 276.909419 98.233558 278.250214 97.678183 279.23865 96.689746 
C 280.227087 95.70131 280.782462 94.360515 280.782462 92.962655 
C 280.782462 91.564795 280.227087 90.223999 279.23865 89.235563 
C 278.250214 88.247127 276.909419 87.691751 275.511559 87.691751 
C 274.113699 87.691751 272.772903 88.247127 271.784467 89.235563 
C 270.796031 90.223999 270.240655 91.564795 270.240655 92.962655 
C 270.240655 94.360515 270.796031 95.70131 271.784467 96.689746 
C 272.772903 97.678183 274.113699 98.233558 275.511559 98.233558 
z
" clip-path="url(#pee9f65bf64)" style="fill: #6a95ff; fill-opacity: 0.5; stroke: #6a95ff; stroke-opacity: 0.5"/>
    <path d="M 276.022056 101.377094 
C 278.615745 101.377094 281.103552 100.346611 282.937566 98.512596 
C 284.771581 96.678582 285.802064 94.190775 285.802064 91.597086 
C 285.802064 89.003398 284.771581 86.515591 282.937566 84.681576 
C 281.103552 82.847562 278.615745 81.817078 276.022056 81.817078 
C 273.428368 81.817078 270.940561 82.847562 269.106546 84.681576 
C 267.272532 86.515591 266.242048 89.003398 266.242048 91.597086 
C 266.242048 94.190775 267.272532 96.678582 269.106546 98.512596 
C 270.940561 100.346611 273.428368 101.377094 276.022056 101.377094 
z
" clip-path="url(#pee9f65bf64)" style="fill: #54abff; fill-opacity: 0.5; stroke: #54abff; stroke-opacity: 0.5"/>
    <path d="M 286.857069 110.165981 
C 290.870987 110.165981 294.721046 108.571234 297.559315 105.732965 
C 300.397584 102.894696 301.99233 99.044637 301.99233 95.030719 
C 301.99233 91.016801 300.397584 87.166742 297.559315 84.328473 
C 294.721046 81.490204 290.870987 79.895457 286.857069 79.895457 
C 282.843151 79.895457 278.993092 81.490204 276.154823 84.328473 
C 273.316554 87.166742 271.721807 91.016801 271.721807 95.030719 
C 271.721807 99.044637 273.316554 102.894696 276.154823 105.732965 
C 278.993092 108.571234 282.843151 110.165981 286.857069 110.165981 
z
" clip-path="url(#pee9f65bf64)" style="fill: #6699ff; fill-opacity: 0.5; stroke: #6699ff; stroke-opacity: 0.5"/>
    <path d="M 287.156921 130.944988 
C 291.055682 130.944988 294.795286 129.395994 297.552126 126.639153 
C 300.308967 123.882312 301.857961 120.142709 301.857961 116.243947 
C 301.857961 112.345186 300.308967 108.605583 297.552126 105.848742 
C 294.795286 103.091901 291.055682 101.542907 287.156921 101.542907 
C 283.258159 101.542907 279.518556 103.091901 276.761715 105.848742 
C 274.004874 108.605583 272.45588 112.345186 272.45588 116.243947 
C 272.45588 120.142709 274.004874 123.882312 276.761715 126.639153 
C 279.518556 129.395994 283.258159 130.944988 287.156921 130.944988 
z
" clip-path="url(#pee9f65bf64)" style="fill: #5ba4ff; fill-opacity: 0.5; stroke: #5ba4ff; stroke-opacity: 0.5"/>
    <path d="M 294.232448 144.829631 
C 300.456873 144.829631 306.4272 142.356641 310.828533 137.955307 
C 315.229867 133.553974 317.702857 127.583647 317.702857 121.359222 
C 317.702857 115.134797 315.229867 109.16447 310.828533 104.763136 
C 306.4272 100.361803 300.456873 97.888813 294.232448 97.888813 
C 288.008023 97.888813 282.037696 100.361803 277.636362 104.763136 
C 273.235029 109.16447 270.762039 115.134797 270.762039 121.359222 
C 270.762039 127.583647 273.235029 133.553974 277.636362 137.955307 
C 282.037696 142.356641 288.008023 144.829631 294.232448 144.829631 
z
" clip-path="url(#pee9f65bf64)" style="fill: #ee11ff; fill-opacity: 0.5; stroke: #ee11ff; stroke-opacity: 0.5"/>
    <path d="M 295.111172 127.167988 
C 299.425745 127.167988 303.564184 125.45379 306.615048 122.402927 
C 309.665911 119.352063 311.380109 115.213624 311.380109 110.899051 
C 311.380109 106.584479 309.665911 102.446039 306.615048 99.395176 
C 303.564184 96.344312 299.425745 94.630114 295.111172 94.630114 
C 290.7966 94.630114 286.65816 96.344312 283.607297 99.395176 
C 280.556433 102.446039 278.842235 106.584479 278.842235 110.899051 
C 278.842235 115.213624 280.556433 119.352063 283.607297 122.402927 
C 286.65816 125.45379 290.7966 127.167988 295.111172 127.167988 
z
" clip-path="url(#pee9f65bf64)" style="fill: #02fdff; fill-opacity: 0.5; stroke: #02fdff; stroke-opacity: 0.5"/>
    <path d="M 298.167156 126.381189 
C 300.40588 126.381189 302.553213 125.491734 304.13623 123.908717 
C 305.719247 122.3257 306.608702 120.178367 306.608702 117.939643 
C 306.608702 115.700919 305.719247 113.553586 304.13623 111.97057 
C 302.553213 110.387553 300.40588 109.498098 298.167156 109.498098 
C 295.928432 109.498098 293.781099 110.387553 292.198082 111.97057 
C 290.615065 113.553586 289.725611 115.700919 289.725611 117.939643 
C 289.725611 120.178367 290.615065 122.3257 292.198082 123.908717 
C 293.781099 125.491734 295.928432 126.381189 298.167156 126.381189 
z
" clip-path="url(#pee9f65bf64)" style="fill: #728dff; fill-opacity: 0.5; stroke: #728dff; stroke-opacity: 0.5"/>
    <path d="M 305.216003 140.738234 
C 311.519481 140.738234 317.565633 138.233836 322.022864 133.776604 
C 326.480096 129.319373 328.984494 123.273221 328.984494 116.969743 
C 328.984494 110.666266 326.480096 104.620114 322.022864 100.162882 
C 317.565633 95.705651 311.519481 93.201253 305.216003 93.201253 
C 298.912526 93.201253 292.866374 95.705651 288.409142 100.162882 
C 283.951911 104.620114 281.447513 110.666266 281.447513 116.969743 
C 281.447513 123.273221 283.951911 129.319373 288.409142 133.776604 
C 292.866374 138.233836 298.912526 140.738234 305.216003 140.738234 
z
" clip-path="url(#pee9f65bf64)" style="fill: #ff00ff; fill-opacity: 0.5; stroke: #ff00ff; stroke-opacity: 0.5"/>
    <path d="M 307.654056 141.849141 
C 310.633868 141.849141 313.492034 140.665249 315.599079 138.558205 
C 317.706124 136.45116 318.890015 133.592993 318.890015 130.613182 
C 318.890015 127.633371 317.706124 124.775204 315.599079 122.668159 
C 313.492034 120.561115 310.633868 119.377223 307.654056 119.377223 
C 304.674245 119.377223 301.816078 120.561115 299.709034 122.668159 
C 297.601989 124.775204 296.418098 127.633371 296.418098 130.613182 
C 296.418098 133.592993 297.601989 136.45116 299.709034 138.558205 
C 301.816078 140.665249 304.674245 141.849141 307.654056 141.849141 
z
" clip-path="url(#pee9f65bf64)" style="fill: #d629ff; fill-opacity: 0.5; stroke: #d629ff; stroke-opacity: 0.5"/>
    <path d="M 313.284695 136.148958 
C 319.466892 136.148958 325.396714 133.692745 329.768188 129.321272 
C 334.139661 124.949798 336.595874 119.019976 336.595874 112.837779 
C 336.595874 106.655582 334.139661 100.725759 329.768188 96.354286 
C 325.396714 91.982813 319.466892 89.5266 313.284695 89.5266 
C 307.102498 89.5266 301.172676 91.982813 296.801202 96.354286 
C 292.429729 100.725759 289.973516 106.655582 289.973516 112.837779 
C 289.973516 119.019976 292.429729 124.949798 296.801202 129.321272 
C 301.172676 133.692745 307.102498 136.148958 313.284695 136.148958 
z
" clip-path="url(#pee9f65bf64)" style="fill: #f30cff; fill-opacity: 0.5; stroke: #f30cff; stroke-opacity: 0.5"/>
    <path d="M 315.426064 130.394355 
C 318.390529 130.394355 321.233975 129.216561 323.330167 127.120369 
C 325.42636 125.024176 326.604154 122.18073 326.604154 119.216266 
C 326.604154 116.251802 325.42636 113.408355 323.330167 111.312163 
C 321.233975 109.21597 318.390529 108.038176 315.426064 108.038176 
C 312.4616 108.038176 309.618154 109.21597 307.521961 111.312163 
C 305.425769 113.408355 304.247975 116.251802 304.247975 119.216266 
C 304.247975 122.18073 305.425769 125.024176 307.521961 127.120369 
C 309.618154 129.216561 312.4616 130.394355 315.426064 130.394355 
z
" clip-path="url(#pee9f65bf64)" style="fill: #9e61ff; fill-opacity: 0.5; stroke: #9e61ff; stroke-opacity: 0.5"/>
    <path d="M 319.098718 170.381533 
C 328.760104 170.381533 338.027086 166.543024 344.858717 159.711392 
C 351.690349 152.879761 355.528858 143.61278 355.528858 133.951394 
C 355.528858 124.290008 351.690349 115.023026 344.858717 108.191395 
C 338.027086 101.359763 328.760104 97.521254 319.098718 97.521254 
C 309.437333 97.521254 300.170351 101.359763 293.33872 108.191395 
C 286.507088 115.023026 282.668579 124.290008 282.668579 133.951394 
C 282.668579 143.61278 286.507088 152.879761 293.33872 159.711392 
C 300.170351 166.543024 309.437333 170.381533 319.098718 170.381533 
z
" clip-path="url(#pee9f65bf64)" style="fill: #619eff; fill-opacity: 0.5; stroke: #619eff; stroke-opacity: 0.5"/>
    <path d="M 319.355551 140.716451 
C 323.079359 140.716451 326.65115 139.236967 329.284279 136.603838 
C 331.917409 133.970708 333.396893 130.398917 333.396893 126.67511 
C 333.396893 122.951302 331.917409 119.379511 329.284279 116.746382 
C 326.65115 114.113252 323.079359 112.633768 319.355551 112.633768 
C 315.631744 112.633768 312.059953 114.113252 309.426823 116.746382 
C 306.793694 119.379511 305.31421 122.951302 305.31421 126.67511 
C 305.31421 130.398917 306.793694 133.970708 309.426823 136.603838 
C 312.059953 139.236967 315.631744 140.716451 319.355551 140.716451 
z
" clip-path="url(#pee9f65bf64)" style="fill: #e718ff; fill-opacity: 0.5; stroke: #e718ff; stroke-opacity: 0.5"/>
    <path d="M 320.067665 170.310259 
C 328.855929 170.310259 337.285431 166.818645 343.499671 160.604404 
C 349.713912 154.390163 353.205526 145.960661 353.205526 137.172398 
C 353.205526 128.384135 349.713912 119.954633 343.499671 113.740392 
C 337.285431 107.526151 328.855929 104.034537 320.067665 104.034537 
C 311.279402 104.034537 302.8499 107.526151 296.635659 113.740392 
C 290.421419 119.954633 286.929805 128.384135 286.929805 137.172398 
C 286.929805 145.960661 290.421419 154.390163 296.635659 160.604404 
C 302.8499 166.818645 311.279402 170.310259 320.067665 170.310259 
z
" clip-path="url(#pee9f65bf64)" style="fill: #18e7ff; fill-opacity: 0.5; stroke: #18e7ff; stroke-opacity: 0.5"/>
    <path d="M 322.519222 177.749058 
C 332.491082 177.749058 342.055863 173.787196 349.107034 166.736026 
C 356.158204 159.684855 360.120066 150.120074 360.120066 140.148214 
C 360.120066 130.176353 356.158204 120.611572 349.107034 113.560402 
C 342.055863 106.509232 332.491082 102.54737 322.519222 102.54737 
C 312.547362 102.54737 302.98258 106.509232 295.93141 113.560402 
C 288.88024 120.611572 284.918378 130.176353 284.918378 140.148214 
C 284.918378 150.120074 288.88024 159.684855 295.93141 166.736026 
C 302.98258 173.787196 312.547362 177.749058 322.519222 177.749058 
z
" clip-path="url(#pee9f65bf64)" style="fill: #11eeff; fill-opacity: 0.5; stroke: #11eeff; stroke-opacity: 0.5"/>
    <path d="M 323.937829 175.870414 
C 332.641727 175.870414 340.990307 172.412319 347.144893 166.257733 
C 353.299478 160.103148 356.757574 151.754567 356.757574 143.050669 
C 356.757574 134.346771 353.299478 125.99819 347.144893 119.843605 
C 340.990307 113.689019 332.641727 110.230924 323.937829 110.230924 
C 315.23393 110.230924 306.88535 113.689019 300.730764 119.843605 
C 294.576179 125.99819 291.118084 134.346771 291.118084 143.050669 
C 291.118084 151.754567 294.576179 160.103148 300.730764 166.257733 
C 306.88535 172.412319 315.23393 175.870414 323.937829 175.870414 
z
" clip-path="url(#pee9f65bf64)" style="fill: #b24dff; fill-opacity: 0.5; stroke: #b24dff; stroke-opacity: 0.5"/>
    <path d="M 326.836149 152.77486 
C 331.957478 152.77486 336.869741 150.740134 340.491068 147.118807 
C 344.112396 143.49748 346.147121 138.585217 346.147121 133.463887 
C 346.147121 128.342557 344.112396 123.430294 340.491068 119.808967 
C 336.869741 116.18764 331.957478 114.152914 326.836149 114.152914 
C 321.714819 114.152914 316.802556 116.18764 313.181229 119.808967 
C 309.559902 123.430294 307.525176 128.342557 307.525176 133.463887 
C 307.525176 138.585217 309.559902 143.49748 313.181229 147.118807 
C 316.802556 150.740134 321.714819 152.77486 326.836149 152.77486 
z
" clip-path="url(#pee9f65bf64)" style="fill: #956aff; fill-opacity: 0.5; stroke: #956aff; stroke-opacity: 0.5"/>
    <path d="M 340.041081 189.117092 
C 353.452315 189.117092 366.316066 183.788752 375.799241 174.305577 
C 385.282416 164.822402 390.610756 151.958652 390.610756 138.547417 
C 390.610756 125.136183 385.282416 112.272432 375.799241 102.789257 
C 366.316066 93.306082 353.452315 87.977742 340.041081 87.977742 
C 326.629846 87.977742 313.766096 93.306082 304.282921 102.789257 
C 294.799746 112.272432 289.471406 125.136183 289.471406 138.547417 
C 289.471406 151.958652 294.799746 164.822402 304.282921 174.305577 
C 313.766096 183.788752 326.629846 189.117092 340.041081 189.117092 
z
" clip-path="url(#pee9f65bf64)" style="fill: #ca35ff; fill-opacity: 0.5; stroke: #ca35ff; stroke-opacity: 0.5"/>
    <path d="M 343.174241 200.488609 
C 355.817986 200.488609 367.945578 195.465196 376.886056 186.524718 
C 385.826534 177.58424 390.849947 165.456648 390.849947 152.812903 
C 390.849947 140.169158 385.826534 128.041566 376.886056 119.101088 
C 367.945578 110.160611 355.817986 105.137197 343.174241 105.137197 
C 330.530496 105.137197 318.402904 110.160611 309.462426 119.101088 
C 300.521949 128.041566 295.498535 140.169158 295.498535 152.812903 
C 295.498535 165.456648 300.521949 177.58424 309.462426 186.524718 
C 318.402904 195.465196 330.530496 200.488609 343.174241 200.488609 
z
" clip-path="url(#pee9f65bf64)" style="fill: #5da2ff; fill-opacity: 0.5; stroke: #5da2ff; stroke-opacity: 0.5"/>
    <path d="M 345.564457 187.189963 
C 358.81788 187.189963 371.530262 181.924322 380.901848 172.552736 
C 390.273433 163.181151 395.539074 150.468769 395.539074 137.215345 
C 395.539074 123.961922 390.273433 111.24954 380.901848 101.877954 
C 371.530262 92.506368 358.81788 87.240727 345.564457 87.240727 
C 332.311033 87.240727 319.598651 92.506368 310.227065 101.877954 
C 300.85548 111.24954 295.589839 123.961922 295.589839 137.215345 
C 295.589839 150.468769 300.85548 163.181151 310.227065 172.552736 
C 319.598651 181.924322 332.311033 187.189963 345.564457 187.189963 
z
" clip-path="url(#pee9f65bf64)" style="fill: #e916ff; fill-opacity: 0.5; stroke: #e916ff; stroke-opacity: 0.5"/>
    <path d="M 345.846004 203.310874 
C 361.507692 203.310874 376.530025 197.08842 387.60451 186.013935 
C 398.678996 174.939449 404.90145 159.917116 404.90145 144.255428 
C 404.90145 128.593741 398.678996 113.571407 387.60451 102.496922 
C 376.530025 91.422437 361.507692 85.199983 345.846004 85.199983 
C 330.184317 85.199983 315.161983 91.422437 304.087498 102.496922 
C 293.013013 113.571407 286.790558 128.593741 286.790558 144.255428 
C 286.790558 159.917116 293.013013 174.939449 304.087498 186.013935 
C 315.161983 197.08842 330.184317 203.310874 345.846004 203.310874 
z
" clip-path="url(#pee9f65bf64)" style="fill: #4fb0ff; fill-opacity: 0.5; stroke: #4fb0ff; stroke-opacity: 0.5"/>
    <path d="M 351.687249 213.672158 
C 370.259437 213.672158 388.073457 206.29335 401.205977 193.16083 
C 414.338498 180.028309 421.717306 162.21429 421.717306 143.642101 
C 421.717306 125.069913 414.338498 107.255893 401.205977 94.123373 
C 388.073457 80.990853 370.259437 73.612044 351.687249 73.612044 
C 333.115061 73.612044 315.301041 80.990853 302.168521 94.123373 
C 289.036001 107.255893 281.657192 125.069913 281.657192 143.642101 
C 281.657192 162.21429 289.036001 180.028309 302.168521 193.16083 
C 315.301041 206.29335 333.115061 213.672158 351.687249 213.672158 
z
" clip-path="url(#pee9f65bf64)" style="fill: #da25ff; fill-opacity: 0.5; stroke: #da25ff; stroke-opacity: 0.5"/>
    <path d="M 352.990811 197.88088 
C 365.693436 197.88088 377.877504 192.834074 386.859616 183.851962 
C 395.841728 174.86985 400.888534 162.685782 400.888534 149.983157 
C 400.888534 137.280533 395.841728 125.096465 386.859616 116.114353 
C 377.877504 107.132241 365.693436 102.085435 352.990811 102.085435 
C 340.288187 102.085435 328.104119 107.132241 319.122007 116.114353 
C 310.139895 125.096465 305.093089 137.280533 305.093089 149.983157 
C 305.093089 162.685782 310.139895 174.86985 319.122007 183.851962 
C 328.104119 192.834074 340.288187 197.88088 352.990811 197.88088 
z
" clip-path="url(#pee9f65bf64)" style="fill: #8778ff; fill-opacity: 0.5; stroke: #8778ff; stroke-opacity: 0.5"/>
    <path d="M 353.035136 198.624737 
C 361.588817 198.624737 369.793314 195.226324 375.841681 189.177957 
C 381.890047 183.129591 385.288461 174.925094 385.288461 166.371412 
C 385.288461 157.81773 381.890047 149.613233 375.841681 143.564867 
C 369.793314 137.5165 361.588817 134.118087 353.035136 134.118087 
C 344.481454 134.118087 336.276957 137.5165 330.228591 143.564867 
C 324.180224 149.613233 320.78181 157.81773 320.78181 166.371412 
C 320.78181 174.925094 324.180224 183.129591 330.228591 189.177957 
C 336.276957 195.226324 344.481454 198.624737 353.035136 198.624737 
z
" clip-path="url(#pee9f65bf64)" style="fill: #8f70ff; fill-opacity: 0.5; stroke: #8f70ff; stroke-opacity: 0.5"/>
    <path d="M 360.480033 213.410776 
C 371.1947 213.410776 381.471965 209.153793 389.048379 201.577379 
C 396.624793 194.000965 400.881775 183.723701 400.881775 173.009033 
C 400.881775 162.294366 396.624793 152.017101 389.048379 144.440687 
C 381.471965 136.864273 371.1947 132.607291 360.480033 132.607291 
C 349.765365 132.607291 339.488101 136.864273 331.911687 144.440687 
C 324.335273 152.017101 320.07829 162.294366 320.07829 173.009033 
C 320.07829 183.723701 324.335273 194.000965 331.911687 201.577379 
C 339.488101 209.153793 349.765365 213.410776 360.480033 213.410776 
z
" clip-path="url(#pee9f65bf64)" style="fill: #40bfff; fill-opacity: 0.5; stroke: #40bfff; stroke-opacity: 0.5"/>
    <path d="M 373.04123 232.546 
C 385.900422 232.546 398.234665 227.436989 407.327487 218.344167 
C 416.420309 209.251346 421.52932 196.917102 421.52932 184.05791 
C 421.52932 171.198718 416.420309 158.864474 407.327487 149.771652 
C 398.234665 140.67883 385.900422 135.569819 373.04123 135.569819 
C 360.182038 135.569819 347.847794 140.67883 338.754972 149.771652 
C 329.66215 158.864474 324.553139 171.198718 324.553139 184.05791 
C 324.553139 196.917102 329.66215 209.251346 338.754972 218.344167 
C 347.847794 227.436989 360.182038 232.546 373.04123 232.546 
z
" clip-path="url(#pee9f65bf64)" style="fill: #0bf4ff; fill-opacity: 0.5; stroke: #0bf4ff; stroke-opacity: 0.5"/>
    <path d="M 374.903005 244.569341 
C 394.078431 244.569341 412.471063 236.950863 426.030136 223.39179 
C 439.58921 209.832716 447.207688 191.440084 447.207688 172.264658 
C 447.207688 153.089232 439.58921 134.696601 426.030136 121.137527 
C 412.471063 107.578453 394.078431 99.959976 374.903005 99.959976 
C 355.727579 99.959976 337.334948 107.578453 323.775874 121.137527 
C 310.2168 134.696601 302.598323 153.089232 302.598323 172.264658 
C 302.598323 191.440084 310.2168 209.832716 323.775874 223.39179 
C 337.334948 236.950863 355.727579 244.569341 374.903005 244.569341 
z
" clip-path="url(#pee9f65bf64)" style="fill: #3bc4ff; fill-opacity: 0.5; stroke: #3bc4ff; stroke-opacity: 0.5"/>
    <path d="M 376.187953 242.080737 
C 393.161413 242.080737 409.441969 235.33711 421.444018 223.335061 
C 433.446066 211.333013 440.189693 195.052457 440.189693 178.078997 
C 440.189693 161.105537 433.446066 144.82498 421.444018 132.822932 
C 409.441969 120.820883 393.161413 114.077256 376.187953 114.077256 
C 359.214493 114.077256 342.933937 120.820883 330.931888 132.822932 
C 318.929839 144.82498 312.186212 161.105537 312.186212 178.078997 
C 312.186212 195.052457 318.929839 211.333013 330.931888 223.335061 
C 342.933937 235.33711 359.214493 242.080737 376.187953 242.080737 
z
" clip-path="url(#pee9f65bf64)" style="fill: #c738ff; fill-opacity: 0.5; stroke: #c738ff; stroke-opacity: 0.5"/>
    <path d="M 379.280398 300.570357 
C 406.759918 300.570357 433.117648 289.652628 452.548604 270.221672 
C 471.979559 250.790717 482.897288 224.432987 482.897288 196.953466 
C 482.897288 169.473946 471.979559 143.116216 452.548604 123.68526 
C 433.117648 104.254305 406.759918 93.336576 379.280398 93.336576 
C 351.800877 93.336576 325.443147 104.254305 306.012192 123.68526 
C 286.581236 143.116216 275.663507 169.473946 275.663507 196.953466 
C 275.663507 224.432987 286.581236 250.790717 306.012192 270.221672 
C 325.443147 289.652628 351.800877 300.570357 379.280398 300.570357 
z
" clip-path="url(#pee9f65bf64)" style="fill: #37c8ff; fill-opacity: 0.5; stroke: #37c8ff; stroke-opacity: 0.5"/>
    <path d="M 381.091476 282.60035 
C 405.35657 282.60035 428.631096 272.959725 445.789108 255.801713 
C 462.947121 238.6437 472.587745 215.369175 472.587745 191.104081 
C 472.587745 166.838987 462.947121 143.564462 445.789108 126.406449 
C 428.631096 109.248437 405.35657 99.607812 381.091476 99.607812 
C 356.826382 99.607812 333.551857 109.248437 316.393844 126.406449 
C 299.235832 143.564462 289.595208 166.838987 289.595208 191.104081 
C 289.595208 215.369175 299.235832 238.6437 316.393844 255.801713 
C 333.551857 272.959725 356.826382 282.60035 381.091476 282.60035 
z
" clip-path="url(#pee9f65bf64)" style="fill: #3cc3ff; fill-opacity: 0.5; stroke: #3cc3ff; stroke-opacity: 0.5"/>
    <path d="M 390.579289 248.426489 
C 402.938017 248.426489 414.792227 243.516314 423.531168 234.777373 
C 432.270108 226.038433 437.180283 214.184223 437.180283 201.825495 
C 437.180283 189.466766 432.270108 177.612556 423.531168 168.873616 
C 414.792227 160.134675 402.938017 155.224501 390.579289 155.224501 
C 378.220561 155.224501 366.36635 160.134675 357.62741 168.873616 
C 348.88847 177.612556 343.978295 189.466766 343.978295 201.825495 
C 343.978295 214.184223 348.88847 226.038433 357.62741 234.777373 
C 366.36635 243.516314 378.220561 248.426489 390.579289 248.426489 
z
" clip-path="url(#pee9f65bf64)" style="fill: #b748ff; fill-opacity: 0.5; stroke: #b748ff; stroke-opacity: 0.5"/>
    <path d="M 393.669085 349.011631 
C 429.409958 349.011631 463.691789 334.811632 488.964403 309.539018 
C 514.237017 284.266404 528.437016 249.984573 528.437016 214.2437 
C 528.437016 178.502827 514.237017 144.220995 488.964403 118.948381 
C 463.691789 93.675768 429.409958 79.475768 393.669085 79.475768 
C 357.928211 79.475768 323.64638 93.675768 298.373766 118.948381 
C 273.101152 144.220995 258.901153 178.502827 258.901153 214.2437 
C 258.901153 249.984573 273.101152 284.266404 298.373766 309.539018 
C 323.64638 334.811632 357.928211 349.011631 393.669085 349.011631 
z
" clip-path="url(#pee9f65bf64)" style="fill: #4fb0ff; fill-opacity: 0.5; stroke: #4fb0ff; stroke-opacity: 0.5"/>
    <path d="M 399.577376 391.770656 
C 443.255012 391.770656 485.149605 374.417347 516.034357 343.532595 
C 546.91911 312.647843 564.272418 270.75325 564.272418 227.075614 
C 564.272418 183.397979 546.91911 141.503386 516.034357 110.618633 
C 485.149605 79.733881 443.255012 62.380573 399.577376 62.380573 
C 355.899741 62.380573 314.005148 79.733881 283.120396 110.618633 
C 252.235643 141.503386 234.882335 183.397979 234.882335 227.075614 
C 234.882335 270.75325 252.235643 312.647843 283.120396 343.532595 
C 314.005148 374.417347 355.899741 391.770656 399.577376 391.770656 
z
" clip-path="url(#pee9f65bf64)" style="fill: #c33cff; fill-opacity: 0.5; stroke: #c33cff; stroke-opacity: 0.5"/>
    <path d="M 407.52658 412.239963 
C 452.098082 412.239963 494.850051 394.531517 526.366862 363.014706 
C 557.883673 331.497895 575.592119 288.745926 575.592119 244.174424 
C 575.592119 199.602922 557.883673 156.850953 526.366862 125.334142 
C 494.850051 93.817331 452.098082 76.108885 407.52658 76.108885 
C 362.955078 76.108885 320.203109 93.817331 288.686298 125.334142 
C 257.169487 156.850953 239.461041 199.602922 239.461041 244.174424 
C 239.461041 288.745926 257.169487 331.497895 288.686298 363.014706 
C 320.203109 394.531517 362.955078 412.239963 407.52658 412.239963 
z
" clip-path="url(#pee9f65bf64)" style="fill: #a758ff; fill-opacity: 0.5; stroke: #a758ff; stroke-opacity: 0.5"/>
    <path d="M 411.782927 434.887384 
C 453.702977 434.887384 493.911733 418.232372 523.553684 388.590421 
C 553.195635 358.948469 569.850648 318.739713 569.850648 276.819664 
C 569.850648 234.899614 553.195635 194.690858 523.553684 165.048907 
C 493.911733 135.406955 453.702977 118.751943 411.782927 118.751943 
C 369.862877 118.751943 329.654121 135.406955 300.01217 165.048907 
C 270.370219 194.690858 253.715206 234.899614 253.715206 276.819664 
C 253.715206 318.739713 270.370219 358.948469 300.01217 388.590421 
C 329.654121 418.232372 369.862877 434.887384 411.782927 434.887384 
z
" clip-path="url(#pee9f65bf64)" style="fill: #c33cff; fill-opacity: 0.5; stroke: #c33cff; stroke-opacity: 0.5"/>
    <path d="M 413.625305 459.556557 
C 460.886268 459.556557 506.217906 440.779577 539.636454 407.36103 
C 573.055001 373.942483 591.83198 328.610844 591.83198 281.349881 
C 591.83198 234.088918 573.055001 188.75728 539.636454 155.338732 
C 506.217906 121.920185 460.886268 103.143206 413.625305 103.143206 
C 366.364342 103.143206 321.032704 121.920185 287.614156 155.338732 
C 254.195609 188.75728 235.41863 234.088918 235.41863 281.349881 
C 235.41863 328.610844 254.195609 373.942483 287.614156 407.36103 
C 321.032704 440.779577 366.364342 459.556557 413.625305 459.556557 
z
" clip-path="url(#pee9f65bf64)" style="fill: #28d7ff; fill-opacity: 0.5; stroke: #28d7ff; stroke-opacity: 0.5"/>
    <path d="M 417.482281 485.857094 
C 467.728048 485.857094 515.922642 465.89424 551.451764 430.365117 
C 586.980887 394.835995 606.943741 346.641401 606.943741 296.395634 
C 606.943741 246.149868 586.980887 197.955273 551.451764 162.426151 
C 515.922642 126.897029 467.728048 106.934174 417.482281 106.934174 
C 367.236515 106.934174 319.04192 126.897029 283.512798 162.426151 
C 247.983676 197.955273 228.020821 246.149868 228.020821 296.395634 
C 228.020821 346.641401 247.983676 394.835995 283.512798 430.365117 
C 319.04192 465.89424 367.236515 485.857094 417.482281 485.857094 
z
" clip-path="url(#pee9f65bf64)" style="fill: #24dbff; fill-opacity: 0.5; stroke: #24dbff; stroke-opacity: 0.5"/>
    <path d="M 418.398692 542.486033 
C 480.247584 542.486033 539.571631 517.913208 583.305402 474.179437 
C 627.039173 430.445666 651.611998 371.121619 651.611998 309.272727 
C 651.611998 247.423836 627.039173 188.099788 583.305402 144.366018 
C 539.571631 100.632247 480.247584 76.059422 418.398692 76.059422 
C 356.549801 76.059422 297.225753 100.632247 253.491983 144.366018 
C 209.758212 188.099788 185.185387 247.423836 185.185387 309.272727 
C 185.185387 371.121619 209.758212 430.445666 253.491983 474.179437 
C 297.225753 517.913208 356.549801 542.486033 418.398692 542.486033 
z
" clip-path="url(#pee9f65bf64)" style="fill: #c23dff; fill-opacity: 0.5; stroke: #c23dff; stroke-opacity: 0.5"/>
    <path d="M 419.236364 496.666474 
C 470.653799 496.666474 519.972232 476.238111 556.329849 439.880493 
C 592.687466 403.522876 613.11583 354.204444 613.11583 302.787008 
C 613.11583 251.369573 592.687466 202.05114 556.329849 165.693523 
C 519.972232 129.335906 470.653799 108.907542 419.236364 108.907542 
C 367.818928 108.907542 318.500496 129.335906 282.142878 165.693523 
C 245.785261 202.05114 225.356898 251.369573 225.356898 302.787008 
C 225.356898 354.204444 245.785261 403.522876 282.142878 439.880493 
C 318.500496 476.238111 367.818928 496.666474 419.236364 496.666474 
z
" clip-path="url(#pee9f65bf64)" style="fill: #52adff; fill-opacity: 0.5; stroke: #52adff; stroke-opacity: 0.5"/>
   </g>
  </g>
 </g>
 <defs>
  <clipPath id="pee9f65bf64">
   <rect x="0" y="0" width="439.2" height="324"/>
  </clipPath>
 </defs>
</svg>
